<svg width="48" height="48" viewBox="0 0 48 48" fill="none" xmlns="http://www.w3.org/2000/svg">
<g clip-path="url(#clip0_141_1942)">
<g clip-path="url(#clip1_141_1942)">
<mask id="mask0_141_1942" style="mask-type:luminance" maskUnits="userSpaceOnUse" x="3" y="3" width="42" height="42">
<path d="M3.68359 3.84082H44.0036V44.1608H3.68359V3.84082Z" fill="white"/>
</mask>
<g mask="url(#mask0_141_1942)">
<path d="M34.7636 25.6808C29.6698 25.6808 25.5236 29.8254 25.5236 34.9208C25.5236 40.0163 29.6698 44.1608 34.7636 44.1608C39.8574 44.1608 44.0036 40.0163 44.0036 34.9208C44.0036 29.8254 39.8574 25.6808 34.7636 25.6808ZM31.4036 37.4408C31.8656 37.4408 32.2436 37.0645 32.2436 36.6008C32.2436 36.378 32.3321 36.1644 32.4896 36.0068C32.6472 35.8493 32.8608 35.7608 33.0836 35.7608C33.3064 35.7608 33.52 35.8493 33.6776 36.0068C33.8351 36.1644 33.9236 36.378 33.9236 36.6008C33.9236 37.9902 32.793 39.1208 31.4036 39.1208C30.0142 39.1208 28.8836 37.9902 28.8836 36.6008V33.2408C28.8836 31.8515 30.0142 30.7208 31.4036 30.7208C32.793 30.7208 33.9236 31.8515 33.9236 33.2408C33.9236 33.4636 33.8351 33.6773 33.6776 33.8348C33.52 33.9923 33.3064 34.0808 33.0836 34.0808C32.8608 34.0808 32.6472 33.9923 32.4896 33.8348C32.3321 33.6773 32.2436 33.4636 32.2436 33.2408C32.2436 33.018 32.1551 32.8044 31.9976 32.6468C31.84 32.4893 31.6264 32.4008 31.4036 32.4008C31.1808 32.4008 30.9672 32.4893 30.8096 32.6468C30.6521 32.8044 30.5636 33.018 30.5636 33.2408V36.6008C30.5636 36.8236 30.6521 37.0373 30.8096 37.1948C30.9672 37.3523 31.1808 37.4408 31.4036 37.4408ZM38.1236 37.4408C38.5856 37.4408 38.9636 37.0645 38.9636 36.6008C38.9636 36.378 39.0521 36.1644 39.2096 36.0068C39.3672 35.8493 39.5808 35.7608 39.8036 35.7608C40.0264 35.7608 40.24 35.8493 40.3976 36.0068C40.5551 36.1644 40.6436 36.378 40.6436 36.6008C40.6436 37.9902 39.513 39.1208 38.1236 39.1208C36.7342 39.1208 35.6036 37.9902 35.6036 36.6008V33.2408C35.6036 31.8515 36.7342 30.7208 38.1236 30.7208C39.513 30.7208 40.6436 31.8515 40.6436 33.2408C40.6436 33.4636 40.5551 33.6773 40.3976 33.8348C40.24 33.9923 40.0264 34.0808 39.8036 34.0808C39.5808 34.0808 39.3672 33.9923 39.2096 33.8348C39.0521 33.6773 38.9636 33.4636 38.9636 33.2408C38.9636 33.018 38.8751 32.8044 38.7176 32.6468C38.56 32.4893 38.3464 32.4008 38.1236 32.4008C37.9008 32.4008 37.6872 32.4893 37.5296 32.6468C37.3721 32.8044 37.2836 33.018 37.2836 33.2408V36.6008C37.2836 36.8236 37.3721 37.0373 37.5296 37.1948C37.6872 37.3523 37.9008 37.4408 38.1236 37.4408ZM23.8436 34.9208C23.8436 29.5314 27.8672 24.8912 33.2029 24.1268C33.4031 24.0982 33.5863 23.9983 33.719 23.8456C33.8517 23.6929 33.9249 23.4975 33.9253 23.2952V4.68082C33.9253 4.45804 33.8368 4.24438 33.6792 4.08685C33.5217 3.92932 33.3081 3.84082 33.0853 3.84082H14.6053C14.5666 3.84082 14.5347 3.85762 14.4978 3.86266C14.3142 3.88106 14.1422 3.9603 14.0089 4.08778L3.93055 14.1661C3.80469 14.2993 3.72515 14.4696 3.70375 14.6516C3.70039 14.6886 3.68359 14.7222 3.68359 14.7608V39.9608C3.68359 40.1836 3.77209 40.3973 3.92962 40.5548C4.08715 40.7123 4.30081 40.8008 4.52359 40.8008H24.151C24.2928 40.8007 24.4322 40.7647 24.5563 40.6962C24.6804 40.6277 24.7852 40.5289 24.8608 40.409C24.9364 40.2891 24.9805 40.152 24.9889 40.0105C24.9972 39.8689 24.9697 39.7276 24.9087 39.5996C24.2085 38.1392 23.8446 36.5404 23.8436 34.9208ZM13.7636 13.9208H6.55135L13.7636 6.70858V13.9208Z" fill="#E8C8A9"/>
</g>
<path d="M25.5606 34.2482C25.8517 28.7173 30.7102 24.461 36.2212 25.0121C42.0082 25.5908 45.9681 31.1935 44.7064 36.8709C43.6748 41.5132 39.4101 44.7947 34.6627 44.5155C29.3442 44.2026 25.2806 39.5686 25.5606 34.2482Z" fill="#57123F"/>
<path d="M41.1334 35.362L41.8203 35.7618L43 34.8302L42.1286 34.3229L41.8159 34.5698L41.6789 34.5941L41.6053 34.5512L41.9023 34.0411L37.7384 31.6271L41.3953 29.5112L40.0154 27.1407L39.0766 27.6838L38.8383 27.2744L38.0276 27.7463L38.2646 28.1536L35 30.0426L31.7353 28.1536L31.9724 27.7463L31.1616 27.2744L30.9233 27.6838L29.9846 27.1406L28.6047 29.5112L32.2616 31.6271L28.0977 34.0411L28.3946 34.5512L28.321 34.5941L28.184 34.5698L27.8713 34.3229L27 34.8301L28.1797 35.7617L28.8665 35.3619L29.3735 36.2327L29.379 36.2423L29.0921 36.701C28.6064 37.4778 28.591 38.4522 29.0519 39.244L29.9896 40.8548L32.8406 39.1951L31.8946 37.57L32.1662 36.9669C32.4291 37.0808 32.7125 37.1397 32.999 37.1398C33.3637 37.1401 33.7219 37.0434 34.0369 36.8597L34.6976 36.4751L33.3503 34.1606L35 33.2117L36.6465 34.1644L35.3024 36.4751L35.9631 36.8597C36.2781 37.0434 36.6363 37.1401 37.001 37.1398C37.2876 37.1398 37.5716 37.0804 37.8337 36.9669L38.1053 37.5701L37.1594 39.1952L40.0104 40.8548L40.9481 39.244C41.409 38.4523 41.3936 37.4779 40.9079 36.7011L40.621 36.2423L40.6265 36.2328L41.1334 35.362ZM33.4083 36.1248C33.1269 36.235 32.8189 36.2249 32.5512 36.1121L32.9219 35.2891L33.4083 36.1248ZM36.5917 36.1248L37.0781 35.2891L37.4488 36.1121C37.1811 36.2249 36.8731 36.235 36.5917 36.1248Z" fill="#E8C8A9"/>
<path d="M10.0001 10.5L14.0001 5.5V14.5H5.00005L10.0001 10.5Z" fill="black"/>
</g>
</g>
<defs>
<clipPath id="clip0_141_1942">
<rect width="48" height="48" fill="white"/>
</clipPath>
<clipPath id="clip1_141_1942">
<rect width="42" height="42" fill="white" transform="translate(3 3)"/>
</clipPath>
</defs>
</svg>
