<svg width="48" height="48" viewBox="0 0 48 48" fill="none" xmlns="http://www.w3.org/2000/svg">
<g clip-path="url(#clip0_141_1412)">
<path d="M4.10154 21.0603C3.73485 21.1841 3.41636 21.4201 3.19109 21.7348C2.96582 22.0495 2.84515 22.4271 2.84615 22.8141V44.5064C2.84615 45.5218 3.65846 46.3526 4.69231 46.3526H19.2769C19.0185 45.7803 18.8892 45.171 18.8892 44.5064V16.131L4.10154 21.0603ZM13.1846 38.3957H9.14154C8.12615 38.3957 7.29538 37.5649 7.29538 36.5495C7.29538 35.5341 8.12615 34.7033 9.14154 34.7033H13.1846C14.2 34.7033 15.0308 35.5341 15.0308 36.5495C15.0308 37.5649 14.2 38.3957 13.1846 38.3957ZM13.1846 30.5495H9.14154C8.12615 30.5495 7.29538 29.7187 7.29538 28.7033C7.29538 27.6695 8.12615 26.8572 9.14154 26.8572H13.1846C14.2 26.8572 15.0308 27.6695 15.0308 28.7033C15.0308 29.7187 14.2 30.5495 13.1846 30.5495ZM47.1538 15.5384C47.1538 14.8184 46.7292 14.1538 46.0646 13.8584L24.2615 3.81719C23.9825 3.68711 23.6748 3.63069 23.3678 3.65331C23.0607 3.67593 22.7646 3.77685 22.5077 3.94642C21.9723 4.27873 21.6585 4.8695 21.6585 5.49719V44.5064C21.6585 45.5218 22.4708 46.3526 23.5046 46.3526H45.3077C46.3231 46.3526 47.1538 45.5218 47.1538 44.5064V15.5384ZM34.3969 18.3446C35.4971 18.3494 36.5508 18.7886 37.3288 19.5666C38.1067 20.3445 38.5459 21.3983 38.5508 22.4984C38.5508 24.7877 36.6862 26.6523 34.3969 26.6523C32.0892 26.6523 30.2431 24.7877 30.2431 22.4984C30.2431 20.2277 32.0892 18.3446 34.3969 18.3446ZM39.1785 42.6584H29.6338V36.5846C29.6338 33.963 31.7754 31.8215 34.3969 31.8215C37.0369 31.8215 39.1785 33.963 39.1785 36.5846V42.6584Z" fill="#E8C8A9"/>
</g>
<defs>
<clipPath id="clip0_141_1412">
<rect width="48" height="48" fill="white"/>
</clipPath>
</defs>
</svg>
