<svg width="48" height="48" viewBox="0 0 48 48" fill="none" xmlns="http://www.w3.org/2000/svg">
<path d="M27.6423 29.6881V31.553C27.6423 37.2169 30.741 42.3511 35.7293 44.9521L35.8211 45L35.9132 44.9521C40.9013 42.3511 44 37.217 44 31.5531V29.6881C42.2088 28.8471 40.7539 27.4172 39.8738 25.6329H31.7684C30.8884 27.4172 29.4335 28.8471 27.6423 29.6881ZM36.2833 29.5412C37.3753 29.5412 38.4207 29.8811 39.3065 30.5243L37.8806 32.5223C37.4158 32.1836 36.8567 32.0018 36.2833 32.003C34.773 32.003 33.5442 33.2424 33.5442 34.7658C33.5442 36.2892 34.773 37.5285 36.2833 37.5285C36.8567 37.5297 37.4158 37.348 37.8806 37.0093L39.3065 39.0072C38.4207 39.6504 37.3753 39.9904 36.2833 39.9904C33.4272 39.9904 31.1035 37.6466 31.1035 34.7658C31.1035 31.8849 33.4272 29.5412 36.2833 29.5412ZM12.683 3L4.00004 11.7579H12.683V3Z" fill="#E8C8A9"/>
<path d="M28.1819 40.6745C26.4936 37.9279 25.6006 34.7741 25.6008 31.5585V27.995L26.4338 27.7073C28.2228 27.0896 29.6367 25.729 30.3129 23.9747L30.6178 23.1834H35V3H15.347V14.2393H4.00004V45H31.9411C30.4651 43.7762 29.1922 42.3184 28.1819 40.6745ZM11.8215 18.5934H26.6543V21.0533H11.8215V18.5934ZM11.8215 28.5968H22.8464V31.0567H11.8215V28.5968ZM23.8949 36.0584H11.8215V33.5985H23.8949V36.0584ZM25.1918 26.055H11.8215V23.5951H25.1918V26.055Z" fill="#E8C8A9"/>
</svg>
