<svg width="48" height="48" viewBox="0 0 48 48" fill="none" xmlns="http://www.w3.org/2000/svg">
<path d="M36.3636 2H11.6364C10.4067 2 9.22747 2.49658 8.35798 3.3805C7.4885 4.26441 7.00003 5.46326 7.00003 6.71331V41.2776C6.99885 41.4843 7.03783 41.6893 7.11474 41.8807C7.19165 42.0722 7.30497 42.2463 7.44821 42.3931L10.5391 45.5353C10.6828 45.6825 10.8537 45.7994 11.042 45.8792C11.2304 45.9589 11.4324 46 11.6364 46C11.8404 46 12.0424 45.9589 12.2307 45.8792C12.4191 45.7994 12.59 45.6825 12.7337 45.5353L14.7273 43.4928L16.7209 45.5353C16.8646 45.6825 17.0355 45.7994 17.2238 45.8792C17.4122 45.9589 17.6142 46 17.8182 46C18.0222 46 18.2242 45.9589 18.4125 45.8792C18.6009 45.7994 18.7718 45.6825 18.9155 45.5353L20.9091 43.4928L22.9027 45.5353C23.0464 45.6825 23.2173 45.7994 23.4057 45.8792C23.594 45.9589 23.796 46 24 46C24.204 46 24.406 45.9589 24.5943 45.8792C24.7827 45.7994 24.9536 45.6825 25.0973 45.5353L27.0909 43.4928L29.0845 45.5353C29.2282 45.6825 29.3991 45.7994 29.5875 45.8792C29.7758 45.9589 29.9778 46 30.1818 46C30.3858 46 30.5878 45.9589 30.7762 45.8792C30.9645 45.7994 31.1354 45.6825 31.2791 45.5353L33.2727 43.4928L35.2663 45.5353C35.41 45.6825 35.5809 45.7994 35.7693 45.8792C35.9576 45.9589 36.1596 46 36.3636 46C36.5676 46 36.7696 45.9589 36.958 45.8792C37.1463 45.7994 37.3172 45.6825 37.4609 45.5353L40.5518 42.3931C40.695 42.2463 40.8083 42.0722 40.8853 41.8807C40.9622 41.6893 41.0011 41.4843 41 41.2776V6.71331C41 5.46326 40.5115 4.26441 39.642 3.3805C38.7725 2.49658 37.5933 2 36.3636 2ZM19.3636 8.28441C19.6693 8.28441 19.9681 8.37656 20.2223 8.54919C20.4764 8.72183 20.6745 8.9672 20.7915 9.25428C20.9084 9.54136 20.939 9.85726 20.8794 10.162C20.8198 10.4668 20.6726 10.7467 20.4564 10.9665C20.2403 11.1862 19.9649 11.3358 19.6651 11.3964C19.3654 11.4571 19.0546 11.4259 18.7722 11.307C18.4898 11.1881 18.2485 10.9867 18.0786 10.7284C17.9088 10.47 17.8182 10.1663 17.8182 9.85552C17.8182 9.43883 17.981 9.03922 18.2708 8.74458C18.5607 8.44994 18.9538 8.28441 19.3636 8.28441ZM18.2664 18.1667L27.5391 8.74003C27.8301 8.44419 28.2248 8.27798 28.6364 8.27798C29.0479 8.27798 29.4426 8.44419 29.7336 8.74003C30.0246 9.03588 30.1881 9.43713 30.1881 9.85552C30.1881 10.2739 30.0246 10.6752 29.7336 10.971L20.4609 20.3976C20.3172 20.5449 20.1463 20.6618 19.958 20.7415C19.7697 20.8213 19.5677 20.8623 19.3636 20.8623C19.1596 20.8623 18.9576 20.8213 18.7693 20.7415C18.581 20.6618 18.41 20.5449 18.2664 20.3976C18.1215 20.2516 18.0065 20.0778 17.9281 19.8863C17.8496 19.6949 17.8092 19.4895 17.8092 19.2821C17.8092 19.0747 17.8496 18.8694 17.9281 18.6779C18.0065 18.4865 18.1215 18.3127 18.2664 18.1667ZM30.1818 19.2821C30.1818 19.5929 30.0912 19.8966 29.9214 20.155C29.7515 20.4134 29.5102 20.6147 29.2278 20.7336C28.9454 20.8526 28.6346 20.8837 28.3349 20.823C28.0351 20.7624 27.7597 20.6128 27.5436 20.3931C27.3274 20.1733 27.1802 19.8934 27.1206 19.5886C27.061 19.2839 27.0916 18.968 27.2085 18.6809C27.3255 18.3938 27.5236 18.1484 27.7777 17.9758C28.0319 17.8032 28.3307 17.711 28.6364 17.711C29.0462 17.711 29.4393 17.8766 29.7292 18.1712C30.019 18.4658 30.1818 18.8655 30.1818 19.2821ZM33.2727 36.5643H14.7273C14.3174 36.5643 13.9243 36.3987 13.6345 36.1041C13.3447 35.8095 13.1818 35.4099 13.1818 34.9932C13.1818 34.5765 13.3447 34.1769 13.6345 33.8822C13.9243 33.5876 14.3174 33.4221 14.7273 33.4221H33.2727C33.6826 33.4221 34.0757 33.5876 34.3655 33.8822C34.6553 34.1769 34.8182 34.5765 34.8182 34.9932C34.8182 35.4099 34.6553 35.8095 34.3655 36.1041C34.0757 36.3987 33.6826 36.5643 33.2727 36.5643ZM33.2727 28.7088H14.7273C14.3174 28.7088 13.9243 28.5432 13.6345 28.2486C13.3447 27.954 13.1818 27.5543 13.1818 27.1377C13.1818 26.721 13.3447 26.3214 13.6345 26.0267C13.9243 25.7321 14.3174 25.5665 14.7273 25.5665H33.2727C33.6826 25.5665 34.0757 25.7321 34.3655 26.0267C34.6553 26.3214 34.8182 26.721 34.8182 27.1377C34.8182 27.5543 34.6553 27.954 34.3655 28.2486C34.0757 28.5432 33.6826 28.7088 33.2727 28.7088Z" fill="#E8C8A9"/>
</svg>
