<svg width="48" height="48" viewBox="0 0 48 48" fill="none" xmlns="http://www.w3.org/2000/svg">
<path fill-rule="evenodd" clip-rule="evenodd" d="M13.4859 9.53578C13.4859 9.84609 13.2337 10.0983 12.9234 10.0983C12.6122 10.0983 12.3609 9.84609 12.3609 9.53578V5.45672L11.6062 6.29672C11.3991 6.52734 11.0437 6.54703 10.8122 6.33891C10.5806 6.13172 10.5619 5.77641 10.7691 5.54484L12.5044 3.61266C12.6112 3.49359 12.7631 3.42516 12.9234 3.42516C13.0828 3.42516 13.2347 3.49359 13.3416 3.61266L15.0769 5.54484C15.2841 5.77641 15.2653 6.13172 15.0337 6.33891C14.931 6.43198 14.7974 6.48345 14.6587 6.48328C14.5041 6.48328 14.3512 6.42047 14.2397 6.29672L13.4859 5.45672V9.53578ZM37.7569 41.1717C37.5525 41.8542 36.9131 42.3314 36.2025 42.3314C35.4909 42.3314 34.8516 41.8542 34.6472 41.1717C34.6191 41.077 34.5694 41.0067 34.4963 40.9561V44.4867L35.88 43.6205C35.9687 43.5649 36.0712 43.5352 36.1758 43.5347C36.2805 43.5342 36.3833 43.5629 36.4725 43.6177L37.9078 44.498V40.9561C37.8347 41.0077 37.7859 41.077 37.7569 41.1717ZM39.0459 36.5808C39.0459 38.1483 37.77 39.4233 36.2034 39.4233C34.6359 39.4233 33.3609 38.1483 33.3609 36.5808C33.3609 35.0142 34.6359 33.7383 36.2034 33.7383C37.7691 33.7383 39.0459 35.0152 39.0459 36.5808ZM32.9325 33.3117C33.0872 33.157 33.33 33.1223 33.5222 33.2264C33.9375 33.4505 34.4053 33.4739 34.8413 33.293C35.2763 33.113 35.5903 32.7652 35.7253 32.3142C35.7891 32.1042 35.985 31.957 36.2034 31.957C36.4209 31.957 36.6178 32.1042 36.6806 32.3142C36.8156 32.7652 37.1297 33.113 37.5656 33.293C38.0006 33.4739 38.4684 33.4495 38.8838 33.2264C39.0769 33.1223 39.3187 33.157 39.4734 33.3117C39.6272 33.4655 39.6628 33.7083 39.5588 33.9014C39.3347 34.3167 39.3112 34.7845 39.4912 35.2195C39.6722 35.6555 40.0181 35.9695 40.47 36.1045C40.6809 36.1673 40.83 36.3642 40.83 36.5817C40.83 36.8002 40.6809 36.9961 40.47 37.0598C40.0181 37.1948 39.6722 37.5089 39.4912 37.9439C39.3112 38.3798 39.3347 38.8477 39.5588 39.262C39.6628 39.4552 39.6272 39.698 39.4734 39.8527C39.3187 40.0064 39.0769 40.0411 38.8838 39.938C38.4684 39.7139 38.0006 39.6905 37.5656 39.8705C37.1297 40.0505 36.8156 40.3992 36.6806 40.8502C36.6178 41.0602 36.4209 41.2073 36.2034 41.2073C35.985 41.2073 35.7891 41.0602 35.7253 40.8502C35.5903 40.3983 35.2763 40.0505 34.8413 39.8705C34.6481 39.7908 34.4484 39.7505 34.2497 39.7505C34.0003 39.7505 33.7528 39.8133 33.5222 39.938C33.3291 40.0411 33.0872 40.0064 32.9325 39.8527C32.8573 39.7761 32.8084 39.6775 32.7931 39.5713C32.7778 39.4651 32.7967 39.3567 32.8472 39.262C33.0712 38.8477 33.0947 38.3798 32.9147 37.9439C32.7337 37.5089 32.3859 37.1948 31.935 37.0598C31.725 36.9961 31.5778 36.8002 31.5778 36.5817C31.5778 36.3642 31.725 36.1673 31.935 36.1045C32.3859 35.9695 32.7337 35.6555 32.9147 35.2195C33.0947 34.7845 33.0712 34.3167 32.8472 33.9014C32.7422 33.7073 32.7778 33.4645 32.9325 33.3117ZM36.2025 34.8633C35.2547 34.8633 34.485 35.6339 34.485 36.5808C34.485 37.5277 35.2547 38.2983 36.2025 38.2983C37.1494 38.2983 37.92 37.5277 37.92 36.5808C37.92 35.6339 37.1494 34.8633 36.2025 34.8633ZM27.0544 28.8708H29.7516V25.8548H27.0544V28.8708ZM30.3141 29.9958H26.4919C26.1806 29.9958 25.9294 29.7445 25.9294 29.4333V25.8548H21.3872C21.2663 25.8548 21.165 25.957 21.165 26.077V38.7698C21.165 38.8898 21.2663 38.992 21.3872 38.992H31.7438C31.7738 38.902 31.8103 38.813 31.8562 38.7277C31.92 38.6095 31.9256 38.497 31.8741 38.3742C31.8225 38.2505 31.7391 38.1745 31.6116 38.1361C30.9291 37.9317 30.4519 37.2923 30.4519 36.5808C30.4519 35.8702 30.9291 35.2308 31.6106 35.0264C31.7391 34.988 31.8225 34.912 31.8741 34.7883C31.9256 34.6645 31.92 34.552 31.8562 34.4339C31.5187 33.8077 31.6341 33.0183 32.1366 32.5148C32.6391 32.0123 33.4284 31.897 34.0556 32.2355C34.1728 32.2992 34.2853 32.3048 34.4091 32.2533C34.5328 32.2017 34.6088 32.1183 34.6472 31.9898C34.7953 31.4958 35.1731 31.1105 35.64 30.9352V26.077C35.64 25.957 35.5378 25.8548 35.4178 25.8548H30.8756V29.4333C30.8766 29.7445 30.6234 29.9958 30.3141 29.9958ZM25.0088 2.79984V8.59828H30.8081L25.0088 2.79984ZM7.11281 3.37078V34.4255C7.11281 35.1802 7.72687 35.7933 8.48062 35.7933H20.0391V29.0564H11.0119C10.7006 29.0564 10.4494 28.8042 10.4494 28.4939C10.4494 28.1836 10.7006 27.9314 11.0119 27.9314H20.0391V26.078C20.0391 25.3355 20.6437 24.7308 21.3862 24.7308H31.6031V9.72234H24.4463C24.1359 9.72234 23.8837 9.47109 23.8837 9.15984V2.00391H8.48156C7.72687 2.00391 7.11281 2.61609 7.11281 3.37078ZM18.4922 9.91078C18.3853 10.0298 18.2334 10.0983 18.0741 10.0983C17.9137 10.0983 17.7619 10.0298 17.655 9.91078L15.9197 7.97859C15.7125 7.74703 15.7322 7.39172 15.9628 7.18359C16.1944 6.97641 16.5497 6.99516 16.7569 7.22672L17.5116 8.06672V3.98766C17.5116 3.67734 17.7628 3.42516 18.0741 3.42516C18.3844 3.42516 18.6366 3.67734 18.6366 3.98766V8.06672L19.3903 7.22672C19.4396 7.17173 19.4993 7.12699 19.5658 7.09505C19.6324 7.06312 19.7047 7.04463 19.7784 7.04062C19.8521 7.03662 19.926 7.04718 19.9956 7.07171C20.0653 7.09625 20.1294 7.13426 20.1844 7.18359C20.2955 7.28334 20.3624 7.4231 20.3705 7.57217C20.3786 7.72124 20.3271 7.86742 20.2275 7.97859L18.4922 9.91078ZM11.0119 12.8423H27.705C28.0162 12.8423 28.2675 13.0945 28.2675 13.4048C28.2675 13.7152 28.0162 13.9673 27.705 13.9673H11.0119C10.7006 13.9673 10.4494 13.7152 10.4494 13.4048C10.4494 13.0945 10.7006 12.8423 11.0119 12.8423ZM11.0119 17.872H27.705C28.0162 17.872 28.2675 18.1233 28.2675 18.4345C28.2675 18.7448 28.0162 18.997 27.705 18.997H11.0119C10.7006 18.997 10.4494 18.7448 10.4494 18.4345C10.4494 18.1233 10.7006 17.872 11.0119 17.872ZM11.0119 22.9008H27.705C28.0162 22.9008 28.2675 23.153 28.2675 23.4633C28.2675 23.7745 28.0162 24.0258 27.705 24.0258H11.0119C10.7006 24.0258 10.4494 23.7745 10.4494 23.4633C10.4494 23.153 10.7006 22.9008 11.0119 22.9008Z" fill="#E8C8A9"/>
</svg>
