<svg width="48" height="48" viewBox="0 0 48 48" fill="none" xmlns="http://www.w3.org/2000/svg">
<g clip-path="url(#clip0_141_1157)">
<path d="M37.3183 2.66659L13.0681 2.96255C11.3782 2.98318 10.0167 4.37843 10.0373 6.06831L10.5046 44.3552C10.5252 46.0451 11.9204 47.4067 13.6103 47.3861L37.8604 47.0901C39.5503 47.0695 40.9118 45.6742 40.8912 43.9843L40.4239 5.69744C40.4033 4.00757 39.0081 2.64596 37.3183 2.66659ZM22.9693 11.1634C22.953 9.82664 24.0269 8.72621 25.3636 8.70989C26.7004 8.69358 27.8008 9.76747 27.8171 11.1042L27.8631 14.8746C27.8685 15.312 27.518 15.6711 27.0807 15.6764C26.6433 15.6818 26.2842 15.3313 26.2789 14.894L26.2556 12.9848L24.5764 13.0053L24.5997 14.9145C24.605 15.3518 24.2546 15.7109 23.8172 15.7163C23.3799 15.7216 23.0208 15.3711 23.0154 14.9338L22.9693 11.1634ZM16.1844 8.82141L21.2086 8.76009C21.6459 8.75476 22.005 9.1052 22.0104 9.54256C22.0157 9.97991 21.6652 10.339 21.2279 10.3444L19.5079 10.3653L19.5642 14.9769C19.5696 15.4143 19.2191 15.7734 18.7818 15.7787C18.3444 15.7841 17.9853 15.4336 17.98 14.9963L17.9237 10.3847L16.2037 10.4057C15.7664 10.411 15.4073 10.0606 15.4019 9.62321C15.3966 9.18586 15.747 8.82675 16.1844 8.82141ZM28.1718 41.3115L15.5698 41.4653C15.1325 41.4707 14.7733 41.1202 14.768 40.6829C14.7627 40.2455 15.1131 39.8864 15.5505 39.8811L28.1526 39.7273C28.5899 39.7219 28.949 40.0724 28.9544 40.5097C28.9597 40.9471 28.6092 41.3062 28.1718 41.3115ZM28.1113 36.355L15.5093 36.5088C15.072 36.5141 14.7129 36.1637 14.7075 35.7263C14.7022 35.289 15.0526 34.9299 15.49 34.9245L28.0921 34.7707C28.5294 34.7654 28.8885 35.1158 28.8939 35.5532C28.8964 35.7633 28.8153 35.9657 28.6686 36.1161C28.5218 36.2664 28.3214 36.3524 28.1113 36.355ZM28.0508 31.3984L15.4488 31.5522C15.0115 31.5575 14.6524 31.2071 14.647 30.7697C14.6417 30.3324 14.9921 29.9733 15.4295 29.9679L28.0316 29.8141C28.4689 29.8088 28.828 30.1592 28.8334 30.5966C28.8387 31.034 28.4882 31.3931 28.0508 31.3984ZM27.9903 26.4413L15.3883 26.5951C14.951 26.6005 14.5919 26.25 14.5865 25.8127C14.5812 25.3753 14.9316 25.0162 15.369 25.0109L27.9711 24.8571C28.4084 24.8517 28.7675 25.2022 28.7729 25.6395C28.7782 26.0769 28.4277 26.436 27.9903 26.4413ZM27.9298 21.4847L15.3278 21.6386C14.8905 21.6439 14.5314 21.2934 14.526 20.8561C14.5207 20.4187 14.8711 20.0596 15.3085 20.0543L27.9106 19.9005C28.3479 19.8951 28.7071 20.2456 28.7124 20.6829C28.7149 20.893 28.6338 21.0955 28.4871 21.2458C28.3403 21.3962 28.1399 21.4821 27.9298 21.4847ZM31.0318 15.3095C30.9594 15.4095 30.8646 15.4911 30.7549 15.5478C30.6452 15.6045 30.5238 15.6346 30.4004 15.6359C30.2298 15.6383 30.0632 15.5851 29.9255 15.4844C29.8414 15.4232 29.7701 15.3461 29.7158 15.2574C29.6615 15.1687 29.6252 15.0702 29.6089 14.9674C29.5927 14.8647 29.5968 14.7598 29.6212 14.6587C29.6455 14.5575 29.6894 14.4622 29.7506 14.3781L31.3854 12.1301L29.6962 9.92278C29.633 9.84017 29.5867 9.74592 29.56 9.64542C29.5332 9.54492 29.5265 9.44013 29.5402 9.33703C29.5539 9.23394 29.5878 9.13456 29.64 9.04456C29.6921 8.95457 29.7615 8.87573 29.8441 8.81254C30.1901 8.54678 30.689 8.61186 30.9543 8.96039L32.3573 10.7937L33.7151 8.9267C33.9717 8.5718 34.469 8.49405 34.8214 8.75179C34.9055 8.81295 34.9767 8.89007 35.0311 8.97877C35.0854 9.06746 35.1217 9.16599 35.1379 9.26872C35.1542 9.37145 35.15 9.47637 35.1257 9.57749C35.1014 9.67862 35.0574 9.77396 34.9963 9.85809L33.3615 12.106L35.0505 14.3134C35.1137 14.396 35.16 14.4902 35.1868 14.5907C35.2136 14.6912 35.2203 14.796 35.2065 14.8991C35.1928 15.0022 35.1589 15.1016 35.1068 15.1916C35.0546 15.2816 34.9853 15.3604 34.9027 15.4236C34.7675 15.5277 34.6022 15.5849 34.4317 15.5867C34.3082 15.5885 34.1861 15.5613 34.0751 15.5073C33.9641 15.4533 33.8673 15.374 33.7924 15.2758L32.3895 13.4425L31.0318 15.3095ZM35.757 41.219L33.9232 41.2413C33.4858 41.2467 33.1267 40.8962 33.1214 40.4589C33.116 40.0215 33.4665 39.6624 33.9038 39.6571L35.7378 39.6347C36.1751 39.6294 36.5342 39.9798 36.5396 40.4172C36.5449 40.8545 36.1943 41.2136 35.757 41.219ZM35.6965 36.2624L33.8627 36.2848C33.4253 36.2901 33.0662 35.9397 33.0609 35.5023C33.0555 35.065 33.406 34.7059 33.8433 34.7005L35.6773 34.6781C36.1146 34.6728 36.4737 35.0232 36.4791 35.4606C36.4815 35.6707 36.4005 35.8731 36.2538 36.0235C36.107 36.1738 35.9066 36.2598 35.6965 36.2624ZM35.636 31.3058L33.8022 31.3282C33.3648 31.3335 33.0057 30.9831 33.0004 30.5457C32.995 30.1084 33.3455 29.7493 33.7828 29.7439L35.6168 29.7216C36.0541 29.7162 36.4132 30.0667 36.4186 30.504C36.4239 30.9414 36.0734 31.3005 35.636 31.3058ZM35.5755 26.3487L33.7417 26.3711C33.3043 26.3765 32.9452 26.026 32.9399 25.5887C32.9345 25.1513 33.285 24.7922 33.7223 24.7869L35.5563 24.7645C35.9936 24.7591 36.3527 25.1096 36.3581 25.5469C36.3634 25.9843 36.0129 26.3434 35.5755 26.3487ZM35.515 21.3922L33.6812 21.4146C33.2438 21.4199 32.8847 21.0694 32.8794 20.6321C32.874 20.1947 33.2245 19.8356 33.6618 19.8303L35.4958 19.8079C35.9331 19.8026 36.2922 20.153 36.2976 20.5904C36.3001 20.8005 36.219 21.0029 36.0723 21.1533C35.9255 21.3036 35.7251 21.3896 35.515 21.3922Z" fill="#E8C8A9"/>
</g>
<defs>
<clipPath id="clip0_141_1157">
<rect width="48" height="48" fill="white"/>
</clipPath>
</defs>
</svg>
