<svg width="48" height="48" viewBox="0 0 48 48" fill="none" xmlns="http://www.w3.org/2000/svg">
<path d="M36.3 12.5994H42.915L34.8 4.48438V11.0994C34.8 11.4972 34.958 11.8787 35.2393 12.16C35.5206 12.4413 35.9022 12.5994 36.3 12.5994Z" fill="#E8C8A9"/>
<path d="M36.3 15.5996C35.1065 15.5996 33.9619 15.1255 33.118 14.2816C32.2741 13.4377 31.8 12.2931 31.8 11.0996V3.59961H15.3C14.1065 3.59961 12.9619 4.07372 12.118 4.91763C11.2741 5.76154 10.8 6.90614 10.8 8.09961V18.8996C14.1387 18.2168 17.6103 18.6911 20.6435 20.2446C23.6766 21.7981 26.0903 24.338 27.4873 27.4463C28.8843 30.5546 29.1812 34.0459 28.3293 37.3455C27.4773 40.6451 25.5272 43.5562 22.8 45.5996H39.3C40.4935 45.5996 41.6381 45.1255 42.482 44.2816C43.3259 43.4377 43.8 42.2931 43.8 41.0996V15.5996H36.3ZM27.3 15.5996H18.3C17.9022 15.5996 17.5206 15.4416 17.2393 15.1603C16.958 14.879 16.8 14.4974 16.8 14.0996C16.8 13.7018 16.958 13.3203 17.2393 13.0389C17.5206 12.7576 17.9022 12.5996 18.3 12.5996H27.3C27.6978 12.5996 28.0793 12.7576 28.3606 13.0389C28.642 13.3203 28.8 13.7018 28.8 14.0996C28.8 14.4974 28.642 14.879 28.3606 15.1603C28.0793 15.4416 27.6978 15.5996 27.3 15.5996ZM36.3 38.0996H33.3C32.9022 38.0996 32.5206 37.9416 32.2393 37.6603C31.958 37.379 31.8 36.9974 31.8 36.5996C31.8 36.2018 31.958 35.8203 32.2393 35.5389C32.5206 35.2576 32.9022 35.0996 33.3 35.0996H36.3C36.6978 35.0996 37.0793 35.2576 37.3606 35.5389C37.642 35.8203 37.8 36.2018 37.8 36.5996C37.8 36.9974 37.642 37.379 37.3606 37.6603C37.0793 37.9416 36.6978 38.0996 36.3 38.0996ZM36.3 30.5996H33.3C32.9022 30.5996 32.5206 30.4416 32.2393 30.1603C31.958 29.879 31.8 29.4974 31.8 29.0996C31.8 28.7018 31.958 28.3203 32.2393 28.0389C32.5206 27.7576 32.9022 27.5996 33.3 27.5996H36.3C36.6978 27.5996 37.0793 27.7576 37.3606 28.0389C37.642 28.3203 37.8 28.7018 37.8 29.0996C37.8 29.4974 37.642 29.879 37.3606 30.1603C37.0793 30.4416 36.6978 30.5996 36.3 30.5996ZM36.3 23.0996H30.3C29.9022 23.0996 29.5206 22.9416 29.2393 22.6603C28.958 22.379 28.8 21.9974 28.8 21.5996C28.8 21.2018 28.958 20.8203 29.2393 20.5389C29.5206 20.2576 29.9022 20.0996 30.3 20.0996H36.3C36.6978 20.0996 37.0793 20.2576 37.3606 20.5389C37.642 20.8203 37.8 21.2018 37.8 21.5996C37.8 21.9974 37.642 22.379 37.3606 22.6603C37.0793 22.9416 36.6978 23.0996 36.3 23.0996Z" fill="#E8C8A9"/>
<g clip-path="url(#clip0_140_1077)">
<path d="M8.17669 34.1687L6.83424 35.5112C6.46362 35.8818 6.46362 36.4828 6.83424 36.8536C7.20502 37.2242 7.80603 37.2242 8.17664 36.8536L9.51905 35.5112C9.88988 35.1404 9.88988 34.5394 9.51905 34.1687C9.14843 33.7979 8.54751 33.7979 8.17669 34.1687ZM12.6513 38.6434L11.3089 39.9859C10.9383 40.3565 10.9383 40.9574 11.3089 41.3281C11.6795 41.6989 12.2805 41.6989 12.6513 41.3281L13.9937 39.9859C14.3644 39.615 14.3644 39.0141 13.9937 38.6434C13.623 38.2726 13.0221 38.2726 12.6513 38.6434ZM15.7836 42.6705L16.231 42.2231C16.6018 41.8523 16.6018 41.2513 16.231 40.8807C15.8604 40.51 15.2594 40.51 14.8886 40.8807L14.4412 41.3281C14.0705 41.6989 14.0705 42.2999 14.4412 42.6705C14.8118 43.0413 15.413 43.0413 15.7836 42.6705ZM11.3089 35.5112L9.07165 37.7484C8.70082 38.1192 8.70082 38.7202 9.07165 39.0908C9.44227 39.4615 10.0433 39.4615 10.4139 39.0908L12.6513 36.8536C13.022 36.4828 13.022 35.8818 12.6513 35.5112C12.2805 35.1404 11.6797 35.1404 11.3089 35.5112V35.5112Z" fill="#E8C8A9"/>
<path d="M12.8749 25.891L11.2499 24.2489C11.0027 24.0017 10.6021 24.0017 10.3549 24.2489L4.9854 29.6184C4.73818 29.8656 4.73818 30.2662 4.9854 30.5134L6.0824 31.6274C6.42967 31.9748 6.69136 32.3982 6.84676 32.8642L7.05799 33.498L7.28179 33.2742C8.14533 32.4108 9.55051 32.4108 10.414 33.2742C10.6876 33.5479 10.8646 33.8783 10.9648 34.2264C11.7987 33.7948 12.8479 33.9182 13.5463 34.6166C14.2447 35.315 14.3681 36.3643 13.9365 37.1983C14.2846 37.2985 14.615 37.4751 14.8887 37.7488C15.3271 38.1872 15.5405 38.7653 15.5338 39.3411C16.1097 39.3345 16.6876 39.5479 17.126 39.9863L18.021 40.8811C18.3916 41.2519 18.9926 41.2519 19.3632 40.8811C19.7341 40.5105 19.7341 39.9095 19.3632 39.5387L17.7972 37.9727C17.55 37.7255 17.55 37.3249 17.7972 37.0776C18.0444 36.8306 18.445 36.8306 18.692 37.0776L20.2582 38.6439C20.6289 39.0145 21.23 39.0145 21.6007 38.6439C21.9713 38.2732 21.9713 37.6721 21.6007 37.3015L20.0344 35.7352C19.7874 35.4882 19.7874 35.0876 20.0344 34.8404C20.2817 34.5932 20.6824 34.5932 20.9295 34.8404L22.4957 36.4064C22.8663 36.7771 23.4673 36.7771 23.8381 36.4064C24.2087 36.0358 24.2087 35.4348 23.8381 35.0642L19.9893 31.2154C18.7614 32.0273 17.0878 31.8936 16.0074 30.8131C15.7605 30.5663 15.3594 30.5663 15.1126 30.8131C13.8789 32.0468 11.8715 32.0468 10.6379 30.8131C9.89759 30.073 9.89759 28.8685 10.6379 28.1285L12.8749 25.891Z" fill="#E8C8A9"/>
<path d="M20.8451 24.1854C20.5979 23.9382 20.1973 23.9382 19.9501 24.1854L18.6116 25.5238C18.3767 25.7588 18.058 25.8908 17.7257 25.8908H15.4512C14.9478 25.8909 14.4649 26.0909 14.1089 26.4469L11.5327 29.0231C11.282 29.2738 11.282 29.6675 11.5327 29.9181C12.2754 30.6609 13.4746 30.6609 14.2174 29.9181C14.8868 29.2487 15.9357 29.1846 16.6778 29.7258C17.6758 30.4538 19.0066 30.4984 19.8802 29.6248L20.0345 29.4705L24.3883 33.8244C24.4487 33.6015 24.4498 33.3655 24.3908 33.1465C24.2885 32.7669 24.437 32.2275 24.715 31.9496L26.2146 30.4499C26.4618 30.2027 26.4618 29.8021 26.2146 29.5551L20.8451 24.1854Z" fill="#E8C8A9"/>
</g>
<defs>
<clipPath id="clip0_140_1077">
<rect width="21.6" height="21.6" fill="white" transform="translate(4.79999 24)"/>
</clipPath>
</defs>
</svg>
