<svg width="47" height="47" viewBox="0 0 47 47" fill="none" xmlns="http://www.w3.org/2000/svg">
<path d="M35.3 12.5994H41.915L33.8 4.48438V11.0994C33.8 11.4972 33.958 11.8787 34.2393 12.16C34.5206 12.4413 34.9022 12.5994 35.3 12.5994Z" fill="#E8C8A9"/>
<path d="M35.3 15.5996C34.1065 15.5996 32.9619 15.1255 32.118 14.2816C31.2741 13.4377 30.8 12.2931 30.8 11.0996V3.59961H14.3C13.1065 3.59961 11.9619 4.07372 11.118 4.91763C10.2741 5.76154 9.79999 6.90614 9.79999 8.09961V18.8996C13.1387 18.2168 16.6103 18.6911 19.6435 20.2446C22.6766 21.7981 25.0903 24.338 26.4873 27.4463C27.8843 30.5546 28.1812 34.0459 27.3293 37.3455C26.4773 40.6451 24.5272 43.5562 21.8 45.5996H38.3C39.4935 45.5996 40.6381 45.1255 41.482 44.2816C42.3259 43.4377 42.8 42.2931 42.8 41.0996V15.5996H35.3ZM26.3 15.5996H17.3C16.9022 15.5996 16.5206 15.4416 16.2393 15.1603C15.958 14.879 15.8 14.4974 15.8 14.0996C15.8 13.7018 15.958 13.3203 16.2393 13.0389C16.5206 12.7576 16.9022 12.5996 17.3 12.5996H26.3C26.6978 12.5996 27.0793 12.7576 27.3606 13.0389C27.642 13.3203 27.8 13.7018 27.8 14.0996C27.8 14.4974 27.642 14.879 27.3606 15.1603C27.0793 15.4416 26.6978 15.5996 26.3 15.5996ZM35.3 38.0996H32.3C31.9022 38.0996 31.5206 37.9416 31.2393 37.6603C30.958 37.379 30.8 36.9974 30.8 36.5996C30.8 36.2018 30.958 35.8203 31.2393 35.5389C31.5206 35.2576 31.9022 35.0996 32.3 35.0996H35.3C35.6978 35.0996 36.0793 35.2576 36.3606 35.5389C36.642 35.8203 36.8 36.2018 36.8 36.5996C36.8 36.9974 36.642 37.379 36.3606 37.6603C36.0793 37.9416 35.6978 38.0996 35.3 38.0996ZM35.3 30.5996H32.3C31.9022 30.5996 31.5206 30.4416 31.2393 30.1603C30.958 29.879 30.8 29.4974 30.8 29.0996C30.8 28.7018 30.958 28.3203 31.2393 28.0389C31.5206 27.7576 31.9022 27.5996 32.3 27.5996H35.3C35.6978 27.5996 36.0793 27.7576 36.3606 28.0389C36.642 28.3203 36.8 28.7018 36.8 29.0996C36.8 29.4974 36.642 29.879 36.3606 30.1603C36.0793 30.4416 35.6978 30.5996 35.3 30.5996ZM35.3 23.0996H29.3C28.9022 23.0996 28.5206 22.9416 28.2393 22.6603C27.958 22.379 27.8 21.9974 27.8 21.5996C27.8 21.2018 27.958 20.8203 28.2393 20.5389C28.5206 20.2576 28.9022 20.0996 29.3 20.0996H35.3C35.6978 20.0996 36.0793 20.2576 36.3606 20.5389C36.642 20.8203 36.8 21.2018 36.8 21.5996C36.8 21.9974 36.642 22.379 36.3606 22.6603C36.0793 22.9416 35.6978 23.0996 35.3 23.0996Z" fill="#E8C8A9"/>
<path fill-rule="evenodd" clip-rule="evenodd" d="M20.3 25.6154C20.3001 25.48 20.2696 25.3462 20.2108 25.2242C20.152 25.1022 20.0664 24.995 19.9605 24.9107C19.8545 24.8263 19.7308 24.767 19.5987 24.7371C19.4666 24.7072 19.3295 24.7074 19.1975 24.7379L8.39749 27.2309C8.19941 27.2767 8.02266 27.3881 7.89601 27.5471C7.76935 27.7061 7.70026 27.9033 7.69999 28.1066V41.6993H7.24999C7.13064 41.6993 7.01618 41.7467 6.93179 41.8311C6.8474 41.9155 6.79999 42.03 6.79999 42.1493C6.79999 42.2687 6.8474 42.3831 6.93179 42.4675C7.01618 42.5519 7.13064 42.5993 7.24999 42.5993H12.2V39.8993C12.2 39.6606 12.2948 39.4317 12.4636 39.2629C12.6324 39.0941 12.8613 38.9993 13.1 38.9993H14.9C15.1387 38.9993 15.3676 39.0941 15.5364 39.2629C15.7052 39.4317 15.8 39.6606 15.8 39.8993V42.5993H20.3V25.6154ZM10.85 29.9993C10.7306 29.9993 10.6162 30.0467 10.5318 30.1311C10.4474 30.2155 10.4 30.33 10.4 30.4493V31.3493C10.4 31.4687 10.4474 31.5831 10.5318 31.6675C10.6162 31.7519 10.7306 31.7993 10.85 31.7993H11.75C11.8693 31.7993 11.9838 31.7519 12.0682 31.6675C12.1526 31.5831 12.2 31.4687 12.2 31.3493V30.4493C12.2 30.33 12.1526 30.2155 12.0682 30.1311C11.9838 30.0467 11.8693 29.9993 11.75 29.9993H10.85ZM10.4 33.1493C10.4 33.03 10.4474 32.9155 10.5318 32.8311C10.6162 32.7467 10.7306 32.6993 10.85 32.6993H11.75C11.8693 32.6993 11.9838 32.7467 12.0682 32.8311C12.1526 32.9155 12.2 33.03 12.2 33.1493V34.0493C12.2 34.1687 12.1526 34.2831 12.0682 34.3675C11.9838 34.4519 11.8693 34.4993 11.75 34.4993H10.85C10.7306 34.4993 10.6162 34.4519 10.5318 34.3675C10.4474 34.2831 10.4 34.1687 10.4 34.0493V33.1493ZM10.85 35.3993C10.7306 35.3993 10.6162 35.4467 10.5318 35.5311C10.4474 35.6155 10.4 35.73 10.4 35.8493V36.7493C10.4 36.8687 10.4474 36.9831 10.5318 37.0675C10.6162 37.1519 10.7306 37.1993 10.85 37.1993H11.75C11.8693 37.1993 11.9838 37.1519 12.0682 37.0675C12.1526 36.9831 12.2 36.8687 12.2 36.7493V35.8493C12.2 35.73 12.1526 35.6155 12.0682 35.5311C11.9838 35.4467 11.8693 35.3993 11.75 35.3993H10.85ZM13.1 30.4493C13.1 30.33 13.1474 30.2155 13.2318 30.1311C13.3162 30.0467 13.4306 29.9993 13.55 29.9993H14.45C14.5693 29.9993 14.6838 30.0467 14.7682 30.1311C14.8526 30.2155 14.9 30.33 14.9 30.4493V31.3493C14.9 31.4687 14.8526 31.5831 14.7682 31.6675C14.6838 31.7519 14.5693 31.7993 14.45 31.7993H13.55C13.4306 31.7993 13.3162 31.7519 13.2318 31.6675C13.1474 31.5831 13.1 31.4687 13.1 31.3493V30.4493ZM13.55 32.6993C13.4306 32.6993 13.3162 32.7467 13.2318 32.8311C13.1474 32.9155 13.1 33.03 13.1 33.1493V34.0493C13.1 34.1687 13.1474 34.2831 13.2318 34.3675C13.3162 34.4519 13.4306 34.4993 13.55 34.4993H14.45C14.5693 34.4993 14.6838 34.4519 14.7682 34.3675C14.8526 34.2831 14.9 34.1687 14.9 34.0493V33.1493C14.9 33.03 14.8526 32.9155 14.7682 32.8311C14.6838 32.7467 14.5693 32.6993 14.45 32.6993H13.55ZM13.1 35.8493C13.1 35.73 13.1474 35.6155 13.2318 35.5311C13.3162 35.4467 13.4306 35.3993 13.55 35.3993H14.45C14.5693 35.3993 14.6838 35.4467 14.7682 35.5311C14.8526 35.6155 14.9 35.73 14.9 35.8493V36.7493C14.9 36.8687 14.8526 36.9831 14.7682 37.0675C14.6838 37.1519 14.5693 37.1993 14.45 37.1993H13.55C13.4306 37.1993 13.3162 37.1519 13.2318 37.0675C13.1474 36.9831 13.1 36.8687 13.1 36.7493V35.8493ZM16.25 29.9993C16.1306 29.9993 16.0162 30.0467 15.9318 30.1311C15.8474 30.2155 15.8 30.33 15.8 30.4493V31.3493C15.8 31.4687 15.8474 31.5831 15.9318 31.6675C16.0162 31.7519 16.1306 31.7993 16.25 31.7993H17.15C17.2693 31.7993 17.3838 31.7519 17.4682 31.6675C17.5526 31.5831 17.6 31.4687 17.6 31.3493V30.4493C17.6 30.33 17.5526 30.2155 17.4682 30.1311C17.3838 30.0467 17.2693 29.9993 17.15 29.9993H16.25ZM15.8 33.1493C15.8 33.03 15.8474 32.9155 15.9318 32.8311C16.0162 32.7467 16.1306 32.6993 16.25 32.6993H17.15C17.2693 32.6993 17.3838 32.7467 17.4682 32.8311C17.5526 32.9155 17.6 33.03 17.6 33.1493V34.0493C17.6 34.1687 17.5526 34.2831 17.4682 34.3675C17.3838 34.4519 17.2693 34.4993 17.15 34.4993H16.25C16.1306 34.4993 16.0162 34.4519 15.9318 34.3675C15.8474 34.2831 15.8 34.1687 15.8 34.0493V33.1493ZM16.25 35.3993C16.1306 35.3993 16.0162 35.4467 15.9318 35.5311C15.8474 35.6155 15.8 35.73 15.8 35.8493V36.7493C15.8 36.8687 15.8474 36.9831 15.9318 37.0675C16.0162 37.1519 16.1306 37.1993 16.25 37.1993H17.15C17.2693 37.1993 17.3838 37.1519 17.4682 37.0675C17.5526 36.9831 17.6 36.8687 17.6 36.7493V35.8493C17.6 35.73 17.5526 35.6155 17.4682 35.5311C17.3838 35.4467 17.2693 35.3993 17.15 35.3993H16.25Z" fill="#E8C8A9"/>
<path d="M21.2 27.9209V42.599H24.35C24.4693 42.599 24.5838 42.5516 24.6682 42.4672C24.7526 42.3828 24.8 42.2683 24.8 42.149C24.8 42.0297 24.7526 41.9152 24.6682 41.8308C24.5838 41.7464 24.4693 41.699 24.35 41.699H23.9V29.8271C23.8999 29.66 23.8533 29.4962 23.7654 29.3541C23.6775 29.212 23.5517 29.0972 23.4023 29.0225L21.2 27.9209ZM14.9 42.599H13.1V39.899H14.9V42.599Z" fill="#E8C8A9"/>
</svg>
