<svg width="48" height="48" viewBox="0 0 48 48" fill="none" xmlns="http://www.w3.org/2000/svg">
<path d="M36.3 12.5994H42.915L34.8 4.48438V11.0994C34.8 11.4972 34.958 11.8787 35.2393 12.16C35.5206 12.4413 35.9022 12.5994 36.3 12.5994Z" fill="#E8C8A9"/>
<path d="M36.3 15.5996C35.1065 15.5996 33.9619 15.1255 33.118 14.2816C32.2741 13.4377 31.8 12.2931 31.8 11.0996V3.59961H15.3C14.1065 3.59961 12.9619 4.07372 12.118 4.91763C11.2741 5.76154 10.8 6.90614 10.8 8.09961V18.8996C14.1387 18.2168 17.6104 18.6911 20.6435 20.2446C23.6766 21.7981 26.0903 24.338 27.4873 27.4463C28.8843 30.5546 29.1812 34.0459 28.3293 37.3455C27.4773 40.6451 25.5272 43.5562 22.8 45.5996H39.3C40.4935 45.5996 41.6381 45.1255 42.482 44.2816C43.3259 43.4377 43.8 42.2931 43.8 41.0996V15.5996H36.3ZM27.3 15.5996H18.3C17.9022 15.5996 17.5206 15.4416 17.2393 15.1603C16.958 14.879 16.8 14.4974 16.8 14.0996C16.8 13.7018 16.958 13.3203 17.2393 13.0389C17.5206 12.7576 17.9022 12.5996 18.3 12.5996H27.3C27.6978 12.5996 28.0794 12.7576 28.3607 13.0389C28.642 13.3203 28.8 13.7018 28.8 14.0996C28.8 14.4974 28.642 14.879 28.3607 15.1603C28.0794 15.4416 27.6978 15.5996 27.3 15.5996ZM36.3 38.0996H33.3C32.9022 38.0996 32.5206 37.9416 32.2393 37.6603C31.958 37.379 31.8 36.9974 31.8 36.5996C31.8 36.2018 31.958 35.8203 32.2393 35.5389C32.5206 35.2576 32.9022 35.0996 33.3 35.0996H36.3C36.6978 35.0996 37.0794 35.2576 37.3607 35.5389C37.642 35.8203 37.8 36.2018 37.8 36.5996C37.8 36.9974 37.642 37.379 37.3607 37.6603C37.0794 37.9416 36.6978 38.0996 36.3 38.0996ZM36.3 30.5996H33.3C32.9022 30.5996 32.5206 30.4416 32.2393 30.1603C31.958 29.879 31.8 29.4974 31.8 29.0996C31.8 28.7018 31.958 28.3203 32.2393 28.0389C32.5206 27.7576 32.9022 27.5996 33.3 27.5996H36.3C36.6978 27.5996 37.0794 27.7576 37.3607 28.0389C37.642 28.3203 37.8 28.7018 37.8 29.0996C37.8 29.4974 37.642 29.879 37.3607 30.1603C37.0794 30.4416 36.6978 30.5996 36.3 30.5996ZM36.3 23.0996H30.3C29.9022 23.0996 29.5206 22.9416 29.2393 22.6603C28.958 22.379 28.8 21.9974 28.8 21.5996C28.8 21.2018 28.958 20.8203 29.2393 20.5389C29.5206 20.2576 29.9022 20.0996 30.3 20.0996H36.3C36.6978 20.0996 37.0794 20.2576 37.3607 20.5389C37.642 20.8203 37.8 21.2018 37.8 21.5996C37.8 21.9974 37.642 22.379 37.3607 22.6603C37.0794 22.9416 36.6978 23.0996 36.3 23.0996Z" fill="#E8C8A9"/>
<g clip-path="url(#clip0_140_1036)">
<path d="M23.6 26.7995H19.6V25.9994C19.6 25.117 18.8825 24.3994 18 24.3994H13.2C12.3176 24.3994 11.6 25.117 11.6 25.9994V26.7994H7.60001C6.71756 26.7995 6 27.517 6 28.3994V30.7994C6 31.6819 6.71756 32.3994 7.60001 32.3994H14V31.9994C14 31.9469 14.0103 31.8949 14.0304 31.8463C14.0505 31.7978 14.08 31.7536 14.1171 31.7165C14.1543 31.6793 14.1984 31.6499 14.2469 31.6298C14.2955 31.6097 14.3475 31.5994 14.4 31.5994H16.8C16.8526 31.5994 16.9046 31.6097 16.9532 31.6298C17.0017 31.6499 17.0458 31.6793 17.083 31.7165C17.1201 31.7536 17.1496 31.7978 17.1697 31.8463C17.1898 31.8949 17.2001 31.9469 17.2001 31.9994V32.3994H23.6001C24.4824 32.3994 25.2 31.6819 25.2 30.7994V28.3994C25.2 27.517 24.4824 26.7995 23.6 26.7995ZM18 26.7995H13.2V25.9994H18V26.7995ZM24.9781 32.8311C24.9114 32.798 24.8368 32.7842 24.7627 32.7911C24.6886 32.7981 24.6179 32.8256 24.5586 32.8705C24.2742 33.0858 23.9429 33.1994 23.6 33.1994H17.2V34.3994C17.2 34.452 17.1897 34.504 17.1696 34.5525C17.1495 34.6011 17.1201 34.6452 17.0829 34.6824C17.0458 34.7195 17.0017 34.749 16.9531 34.7691C16.9046 34.7892 16.8525 34.7995 16.8 34.7994H14.4C14.3475 34.7995 14.2954 34.7892 14.2469 34.7691C14.1983 34.749 14.1542 34.7195 14.1171 34.6824C14.0799 34.6452 14.0505 34.6011 14.0304 34.5525C14.0103 34.504 14 34.452 14 34.3994V33.1994H7.60001C7.25704 33.1994 6.9258 33.0858 6.6414 32.8705C6.58221 32.8253 6.51148 32.7975 6.43729 32.7906C6.3631 32.7836 6.28844 32.7976 6.22185 32.8311C6.1552 32.8642 6.09912 32.9153 6.05993 32.9786C6.02073 33.0419 5.99998 33.1149 6 33.1893V38.7995C6 39.6819 6.71756 40.3995 7.60001 40.3995H23.6C24.4824 40.3995 25.2 39.6819 25.2 38.7995V33.1893C25.2 33.1149 25.1793 33.0419 25.1401 32.9786C25.1009 32.9153 25.0448 32.8642 24.9781 32.8311Z" fill="#E8C8A9"/>
</g>
<defs>
<clipPath id="clip0_140_1036">
<rect width="19.2" height="19.2" fill="white" transform="translate(6 22.7998)"/>
</clipPath>
</defs>
</svg>
