<svg width="47" height="47" viewBox="0 0 47 47" fill="none" xmlns="http://www.w3.org/2000/svg">
<path d="M35.3 12.5994H41.915L33.8 4.48438V11.0994C33.8 11.4972 33.958 11.8787 34.2393 12.16C34.5206 12.4413 34.9022 12.5994 35.3 12.5994Z" fill="#E8C8A9"/>
<path d="M35.3 15.5996C34.1065 15.5996 32.9619 15.1255 32.118 14.2816C31.2741 13.4377 30.8 12.2931 30.8 11.0996V3.59961H14.3C13.1065 3.59961 11.9619 4.07372 11.118 4.91763C10.2741 5.76154 9.79999 6.90614 9.79999 8.09961V18.8996C13.1387 18.2168 16.6103 18.6911 19.6435 20.2446C22.6766 21.7981 25.0903 24.338 26.4873 27.4463C27.8843 30.5546 28.1812 34.0459 27.3293 37.3455C26.4773 40.6451 24.5272 43.5562 21.8 45.5996H38.3C39.4935 45.5996 40.6381 45.1255 41.482 44.2816C42.3259 43.4377 42.8 42.2931 42.8 41.0996V15.5996H35.3ZM26.3 15.5996H17.3C16.9022 15.5996 16.5206 15.4416 16.2393 15.1603C15.958 14.879 15.8 14.4974 15.8 14.0996C15.8 13.7018 15.958 13.3203 16.2393 13.0389C16.5206 12.7576 16.9022 12.5996 17.3 12.5996H26.3C26.6978 12.5996 27.0793 12.7576 27.3606 13.0389C27.642 13.3203 27.8 13.7018 27.8 14.0996C27.8 14.4974 27.642 14.879 27.3606 15.1603C27.0793 15.4416 26.6978 15.5996 26.3 15.5996ZM35.3 38.0996H32.3C31.9022 38.0996 31.5206 37.9416 31.2393 37.6603C30.958 37.379 30.8 36.9974 30.8 36.5996C30.8 36.2018 30.958 35.8203 31.2393 35.5389C31.5206 35.2576 31.9022 35.0996 32.3 35.0996H35.3C35.6978 35.0996 36.0793 35.2576 36.3606 35.5389C36.642 35.8203 36.8 36.2018 36.8 36.5996C36.8 36.9974 36.642 37.379 36.3606 37.6603C36.0793 37.9416 35.6978 38.0996 35.3 38.0996ZM35.3 30.5996H32.3C31.9022 30.5996 31.5206 30.4416 31.2393 30.1603C30.958 29.879 30.8 29.4974 30.8 29.0996C30.8 28.7018 30.958 28.3203 31.2393 28.0389C31.5206 27.7576 31.9022 27.5996 32.3 27.5996H35.3C35.6978 27.5996 36.0793 27.7576 36.3606 28.0389C36.642 28.3203 36.8 28.7018 36.8 29.0996C36.8 29.4974 36.642 29.879 36.3606 30.1603C36.0793 30.4416 35.6978 30.5996 35.3 30.5996ZM35.3 23.0996H29.3C28.9022 23.0996 28.5206 22.9416 28.2393 22.6603C27.958 22.379 27.8 21.9974 27.8 21.5996C27.8 21.2018 27.958 20.8203 28.2393 20.5389C28.5206 20.2576 28.9022 20.0996 29.3 20.0996H35.3C35.6978 20.0996 36.0793 20.2576 36.3606 20.5389C36.642 20.8203 36.8 21.2018 36.8 21.5996C36.8 21.9974 36.642 22.379 36.3606 22.6603C36.0793 22.9416 35.6978 23.0996 35.3 23.0996Z" fill="#E8C8A9"/>
<g clip-path="url(#clip0_140_1096)">
<path d="M3.79999 38.1034L7.86066 42.71L10.169 40.6231L6.25458 36.1824L3.79999 38.1034ZM24.9984 31.7629C24.4633 31.2277 23.5955 31.2277 23.0603 31.7629L19.8486 34.952C19.7793 36.2329 18.7156 37.2537 17.4178 37.2537H13.1515V35.9881H17.2639C17.9944 35.9881 18.5867 35.3959 18.5867 34.6654C18.5867 33.9348 17.9944 33.3426 17.2638 33.3426L9.88283 33.3429L7.25291 35.4011L11.1079 39.7743L12.1555 38.8271L19.8744 38.8271C19.8744 38.8271 22.9932 35.7073 24.9987 33.701C25.5339 33.1657 25.5337 32.2981 24.9984 31.7629ZM10.1492 27.794L11.5708 30.8395H12.691V24.4902H11.4254V27.5358L10.0037 24.4902H8.88358V30.8395H10.1492V27.794ZM15.8709 30.8395C16.9206 30.8395 17.7746 29.9855 17.7746 28.9357V27.032H15.8709V28.2977H16.509V28.9357C16.509 29.2876 16.2227 29.5738 15.8709 29.5738C15.519 29.5738 15.2328 29.2876 15.2328 28.9357V26.3939C15.2328 26.0421 15.519 25.7559 15.8709 25.7559C16.2227 25.7559 16.509 26.0421 16.509 26.3939H17.7746C17.7746 25.3442 16.9206 24.4902 15.8709 24.4902C14.8212 24.4902 13.9672 25.3443 13.9672 26.3939V28.9357C13.9672 29.9855 14.8212 30.8395 15.8709 30.8395ZM20.9545 30.8395C22.0042 30.8395 22.8582 29.9855 22.8582 28.9357V26.3939C22.8582 25.3442 22.0042 24.4902 20.9545 24.4902C19.9048 24.4902 19.0508 25.3443 19.0508 26.3939V28.9357C19.0508 29.9855 19.9048 30.8395 20.9545 30.8395ZM20.3164 26.3939C20.3164 26.0421 20.6026 25.7559 20.9545 25.7559C21.3063 25.7559 21.5926 26.0421 21.5926 26.3939V28.9357C21.5926 29.2876 21.3063 29.5738 20.9545 29.5738C20.6026 29.5738 20.3164 29.2876 20.3164 28.9357V26.3939Z" fill="#E8C8A9"/>
</g>
<defs>
<clipPath id="clip0_140_1096">
<rect width="21.6" height="21.6" fill="white" transform="translate(3.79999 22.7998)"/>
</clipPath>
</defs>
</svg>
