<svg width="48" height="48" viewBox="0 0 48 48" fill="none" xmlns="http://www.w3.org/2000/svg">
<path d="M36.3 12.5994H42.915L34.8 4.48438V11.0994C34.8 11.4972 34.9581 11.8787 35.2394 12.16C35.5207 12.4413 35.9022 12.5994 36.3 12.5994Z" fill="#E8C8A9"/>
<path d="M36.3 15.5996C35.1066 15.5996 33.962 15.1255 33.1181 14.2816C32.2742 13.4377 31.8 12.2931 31.8 11.0996V3.59961H15.3C14.1066 3.59961 12.962 4.07372 12.1181 4.91763C11.2742 5.76154 10.8 6.90614 10.8 8.09961V18.8996C14.1387 18.2168 17.6104 18.6911 20.6435 20.2446C23.6766 21.7981 26.0904 24.338 27.4874 27.4463C28.8843 30.5546 29.1813 34.0459 28.3293 37.3455C27.4773 40.6451 25.5272 43.5562 22.8 45.5996H39.3C40.4935 45.5996 41.6381 45.1255 42.482 44.2816C43.3259 43.4377 43.8 42.2931 43.8 41.0996V15.5996H36.3ZM27.3 15.5996H18.3C17.9022 15.5996 17.5207 15.4416 17.2394 15.1603C16.9581 14.879 16.8 14.4974 16.8 14.0996C16.8 13.7018 16.9581 13.3203 17.2394 13.0389C17.5207 12.7576 17.9022 12.5996 18.3 12.5996H27.3C27.6979 12.5996 28.0794 12.7576 28.3607 13.0389C28.642 13.3203 28.8 13.7018 28.8 14.0996C28.8 14.4974 28.642 14.879 28.3607 15.1603C28.0794 15.4416 27.6979 15.5996 27.3 15.5996ZM36.3 38.0996H33.3C32.9022 38.0996 32.5207 37.9416 32.2394 37.6603C31.9581 37.379 31.8 36.9974 31.8 36.5996C31.8 36.2018 31.9581 35.8203 32.2394 35.5389C32.5207 35.2576 32.9022 35.0996 33.3 35.0996H36.3C36.6979 35.0996 37.0794 35.2576 37.3607 35.5389C37.642 35.8203 37.8 36.2018 37.8 36.5996C37.8 36.9974 37.642 37.379 37.3607 37.6603C37.0794 37.9416 36.6979 38.0996 36.3 38.0996ZM36.3 30.5996H33.3C32.9022 30.5996 32.5207 30.4416 32.2394 30.1603C31.9581 29.879 31.8 29.4974 31.8 29.0996C31.8 28.7018 31.9581 28.3203 32.2394 28.0389C32.5207 27.7576 32.9022 27.5996 33.3 27.5996H36.3C36.6979 27.5996 37.0794 27.7576 37.3607 28.0389C37.642 28.3203 37.8 28.7018 37.8 29.0996C37.8 29.4974 37.642 29.879 37.3607 30.1603C37.0794 30.4416 36.6979 30.5996 36.3 30.5996ZM36.3 23.0996H30.3C29.9022 23.0996 29.5207 22.9416 29.2394 22.6603C28.9581 22.379 28.8 21.9974 28.8 21.5996C28.8 21.2018 28.9581 20.8203 29.2394 20.5389C29.5207 20.2576 29.9022 20.0996 30.3 20.0996H36.3C36.6979 20.0996 37.0794 20.2576 37.3607 20.5389C37.642 20.8203 37.8 21.2018 37.8 21.5996C37.8 21.9974 37.642 22.379 37.3607 22.6603C37.0794 22.9416 36.6979 23.0996 36.3 23.0996Z" fill="#E8C8A9"/>
<path fill-rule="evenodd" clip-rule="evenodd" d="M6.61894 36.2266C6.54847 36.2266 6.48518 36.2553 6.43962 36.3008C6.39405 36.3477 6.36536 36.4109 6.36536 36.4801C6.36536 36.5493 6.39405 36.613 6.43962 36.6595C6.48518 36.705 6.54847 36.7325 6.61894 36.7325C6.68813 36.7325 6.75184 36.705 6.79699 36.6595C6.84382 36.6126 6.87125 36.5493 6.87125 36.4801C6.87125 36.4109 6.84382 36.3472 6.79699 36.3008C6.77369 36.2773 6.74596 36.2586 6.71539 36.2459C6.68483 36.2331 6.65205 36.2266 6.61894 36.2266Z" fill="#E8C8A9"/>
<path fill-rule="evenodd" clip-rule="evenodd" d="M8.34255 35.0596H4.89456C4.86924 35.0596 4.84562 35.0706 4.82874 35.0883C4.8106 35.1052 4.80005 35.1288 4.80005 35.1541V41.7657C4.80005 41.7919 4.8106 41.8159 4.82874 41.8328C4.84562 41.8505 4.86924 41.8615 4.89456 41.8615H8.34255C8.36871 41.8615 8.3915 41.8505 8.40964 41.8328C8.42652 41.8159 8.43707 41.7923 8.43707 41.7657V35.1541C8.43707 35.1288 8.4261 35.1052 8.40964 35.0883C8.3915 35.0701 8.36871 35.0596 8.34255 35.0596ZM7.30672 37.168C7.13078 37.3439 6.8869 37.4536 6.61898 37.4536C6.34979 37.4536 6.10718 37.3435 5.92997 37.168C5.75403 36.992 5.64517 36.7494 5.64517 36.4802C5.64517 36.211 5.75403 35.9684 5.92997 35.7925C6.10718 35.6153 6.34979 35.5068 6.61898 35.5068C6.8869 35.5068 7.13078 35.6157 7.30672 35.7925C7.48267 35.9684 7.59152 36.211 7.59152 36.4802C7.59152 36.7494 7.48267 36.992 7.30672 37.168ZM15.6609 24.7751C15.887 24.8325 16.1309 24.878 16.3917 24.9126C16.7085 24.9531 17.0554 24.9759 17.4237 24.9759C17.792 24.9759 18.1376 24.9531 18.4557 24.9126C18.7152 24.878 18.9604 24.8325 19.1865 24.7751L20.2536 22.3051C20.4232 21.9127 20.3219 21.4701 20.0131 21.1917C19.7667 20.9706 19.4152 20.9406 19.135 21.1199L18.8684 21.2908C18.6245 21.4465 18.3292 21.4465 18.0849 21.2908L17.8144 21.1174C17.5705 20.9609 17.276 20.9609 17.0322 21.1174L16.7604 21.2908C16.5166 21.4465 16.2221 21.4465 15.9782 21.2908L15.7103 21.1199C15.4318 20.9406 15.0786 20.9706 14.8322 21.1917C14.5246 21.4701 14.4234 21.9127 14.593 22.3051L15.6609 24.7751ZM10.6535 35.2208C11.1809 35.1001 11.7142 35.0389 12.2551 35.0558C12.7956 35.0727 13.323 35.1659 13.8411 35.3178L19.5916 37.0076C19.8835 37.0924 20.1586 37.2372 20.3679 37.4561L23.98 36.5773C24.5745 35.5617 24.9142 34.3946 24.9142 33.152C24.9142 29.9813 22.6742 26.9927 19.6481 25.3801C19.6228 25.3957 19.5966 25.4063 19.5679 25.4147C19.2616 25.5046 18.9173 25.5751 18.5465 25.624C18.1866 25.6708 17.8098 25.6957 17.4245 25.6957C17.0393 25.6957 16.6617 25.6704 16.3014 25.624C15.9318 25.5751 15.5875 25.5046 15.2812 25.4147C15.2525 25.4063 15.225 25.3957 15.1997 25.3801C12.1749 26.9923 9.93491 29.9813 9.93491 33.152C9.93491 33.9031 10.0581 34.6254 10.2876 35.3047L10.6535 35.2208ZM15.8596 33.5558C16.044 33.4795 16.2533 33.5668 16.3296 33.7495C16.3727 33.8512 16.4216 33.9432 16.4769 34.028C16.6744 34.3284 16.941 34.5039 17.2182 34.5794C17.4967 34.6537 17.784 34.6309 18.0182 34.5326C18.0743 34.5085 18.1283 34.4799 18.1785 34.4478C18.2254 34.4178 18.2659 34.3845 18.3005 34.3486C18.4009 34.2444 18.4667 34.114 18.4849 33.979C18.5026 33.8512 18.4764 33.7149 18.3962 33.5925C18.3688 33.5508 18.3363 33.5124 18.2992 33.4752C18.1583 33.339 17.8617 33.2685 17.5456 33.1942C17.0743 33.0828 16.5723 32.9647 16.1929 32.5748C16.0579 32.4348 15.9584 32.2685 15.8976 32.0879C15.8162 31.85 15.8018 31.5892 15.8558 31.3403C15.9119 31.088 16.0377 30.8462 16.2372 30.6513C16.3832 30.5104 16.5651 30.3952 16.7862 30.3201C16.8376 30.3019 16.8925 30.2867 16.9499 30.2724C16.9883 30.264 17.0254 30.2555 17.0634 30.2483V29.6121C17.0634 29.4133 17.225 29.2522 17.4233 29.2522C17.6216 29.2522 17.7832 29.4138 17.7832 29.6121V30.2327C17.9169 30.2517 18.0486 30.2842 18.1743 30.3306C18.5895 30.4838 18.9372 30.7804 19.0954 31.2458C19.1085 31.2854 19.1207 31.3259 19.1312 31.3702C19.1789 31.5639 19.0608 31.7576 18.868 31.8057C18.6756 31.8525 18.4806 31.7352 18.4338 31.5424C18.4279 31.5209 18.422 31.4994 18.4135 31.4766C18.3346 31.2411 18.1494 31.088 17.9266 31.0065C17.7773 30.9504 17.611 30.9251 17.4469 30.9276C17.4385 30.9289 17.43 30.9289 17.4229 30.9289H17.4182C17.3178 30.9323 17.2174 30.9466 17.1216 30.9694C17.087 30.9791 17.0511 30.9884 17.0153 31.0006C16.9005 31.0403 16.8085 31.0977 16.7377 31.1669C16.6444 31.2576 16.5845 31.3715 16.5583 31.4922C16.5322 31.6154 16.5381 31.7432 16.5773 31.8572C16.6047 31.9398 16.6478 32.0137 16.7077 32.0736C16.9385 32.3116 17.3355 32.4061 17.7077 32.4934C18.1228 32.5913 18.5148 32.6837 18.7996 32.9609C18.8739 33.0328 18.9401 33.1126 18.9971 33.1989C19.1777 33.474 19.2363 33.7803 19.1958 34.0744C19.1574 34.3626 19.0224 34.6351 18.8144 34.8482C18.7414 34.9246 18.66 34.9917 18.5718 35.049C18.487 35.1052 18.3937 35.1541 18.2941 35.1963C18.1309 35.2638 17.9591 35.3081 17.7836 35.3279V35.9397C17.7836 36.1385 17.622 36.2996 17.4237 36.2996C17.2254 36.2996 17.0638 36.138 17.0638 35.9397V35.2819C17.0528 35.2794 17.0423 35.2773 17.0326 35.2748C16.5959 35.1562 16.1773 34.8849 15.8748 34.422C15.7927 34.2966 15.7226 34.1637 15.6655 34.025C15.5892 33.8419 15.6765 33.6314 15.8596 33.5558Z" fill="#E8C8A9"/>
<path fill-rule="evenodd" clip-rule="evenodd" d="M26.3833 37.3078C26.3587 37.2287 26.3102 37.1593 26.2445 37.109C26.0483 36.9571 25.6812 36.9031 25.1095 37.0419L20.7033 38.1149C20.7308 38.2706 20.7261 38.4297 20.6936 38.5824C20.6565 38.7499 20.5848 38.9115 20.4818 39.0562C20.3789 39.1997 20.2472 39.3254 20.0882 39.4258C19.9759 39.495 19.8515 39.5524 19.7152 39.5921C19.446 39.6722 19.1316 39.6879 18.7798 39.6111H18.7785L12.974 38.3541C12.7804 38.3124 12.6572 38.1208 12.6989 37.9259C12.7407 37.7322 12.9323 37.609 13.1259 37.6508L18.9312 38.909C18.9338 38.909 18.9371 38.9102 18.9397 38.9102C19.0042 38.9246 19.0675 38.933 19.1274 38.9377C19.1333 38.9377 19.1392 38.9389 19.1456 38.9389C19.3751 38.9533 19.5654 38.9043 19.7076 38.8145C19.7852 38.7668 19.8489 38.7069 19.8953 38.6398C19.9422 38.5765 19.973 38.5048 19.9898 38.4305C20.016 38.3039 19.997 38.1698 19.9228 38.0512L19.9156 38.0407C19.8223 37.8997 19.6502 37.7753 19.3869 37.6972L13.6365 36.0082C13.1546 35.8673 12.6926 35.7892 12.2323 35.7749C11.7694 35.7606 11.3028 35.8095 10.8125 35.9222L9.15601 36.3002V40.3895L14.2487 41.868C14.9006 42.057 15.5356 42.1321 16.1634 42.0928C16.7899 42.0532 17.411 41.8992 18.0338 41.6287L25.7386 38.2904C26.0998 38.1339 26.3221 37.8575 26.3846 37.5883C26.4095 37.4883 26.4082 37.3913 26.3833 37.3078Z" fill="#E8C8A9"/>
</svg>
