<svg width="48" height="48" viewBox="0 0 48 48" fill="none" xmlns="http://www.w3.org/2000/svg">
<g clip-path="url(#clip0_141_1560)">
<path fill-rule="evenodd" clip-rule="evenodd" d="M7.83685 3H30.4566C33.2786 3 35.5742 5.33215 35.5742 8.19914V23.8003C34.8539 23.6024 34.0514 23.7903 33.4868 24.364L32.9196 24.9402L32.1444 24.7289C31.0025 24.4179 29.8138 25.1153 29.5076 26.2752L29.2997 27.0632L28.5242 27.2744C27.3731 27.588 26.6953 28.7905 27.0022 29.9533L27.21 30.7408L26.6428 31.3169C25.8032 32.1699 25.8032 33.557 26.6428 34.41L27.21 34.9862L27.0022 35.7737C26.857 36.3226 26.9282 36.9074 27.2008 37.4037L26.6334 38.4022H11.1093C10.7969 38.4022 10.5441 38.1455 10.5441 37.828L10.5445 7.93139C10.5449 5.88012 10.1113 3.22559 7.83685 3ZM39.0947 45C38.8944 45 38.7071 44.8917 38.6054 44.7129L36.6397 41.2537L37.0985 40.7876L37.8737 40.9988C39.0215 41.3115 40.2027 40.6184 40.5104 39.4525L40.7184 38.6646C41.1372 38.5505 41.6581 38.4435 42.0145 38.2345L43.9233 41.5932C44.1683 42.0247 43.7888 42.55 43.3104 42.4406L40.4941 41.7975L39.6349 44.5964C39.5987 44.7132 39.5268 44.8153 39.4297 44.8878C39.3326 44.9604 39.2153 44.9997 39.0947 45H39.0947ZM30.9241 45C30.8007 45.0002 30.6806 44.9593 30.5821 44.8836C30.4837 44.8079 30.4124 44.7016 30.3791 44.5808L29.5838 41.6933L26.7246 42.4373C26.242 42.563 25.8466 42.0323 26.0948 41.5941L28.0044 38.234C28.3605 38.4428 28.8811 38.5498 29.2997 38.6638L29.5076 39.4517C29.8161 40.6203 30.9991 41.3099 32.1445 40.9979L32.9197 40.7868L33.379 41.2536L31.4127 44.7137C31.3631 44.8007 31.2919 44.8729 31.2061 44.9232C31.1204 44.9734 31.0232 44.9999 30.9242 45H30.9241ZM35.009 40.8812C34.7409 40.8812 34.472 40.777 34.2678 40.5695L33.2496 39.5351L31.8583 39.9141C31.301 40.0654 30.7241 39.7305 30.5745 39.161L30.2015 37.7476L28.8102 37.3686C28.2519 37.2161 27.9187 36.6334 28.069 36.0643L28.442 34.6509L27.4239 33.6165C27.0153 33.2014 27.0153 32.5255 27.4239 32.1104L28.442 31.076L28.069 29.6626C27.9195 29.0974 28.2491 28.5105 28.8102 28.3583L30.2015 27.9793L30.5745 26.5659C30.7239 25.9991 31.3004 25.6611 31.8583 25.8129L33.2496 26.1919L34.2678 25.1575C34.6763 24.7424 35.3417 24.7424 35.7502 25.1575L36.7684 26.1927L38.1596 25.8137C38.7176 25.662 39.2941 25.9999 39.4435 26.5668L39.8165 27.9802L41.2078 28.3591C41.7662 28.5116 42.0994 29.0943 41.949 29.6634L41.576 31.0768L42.5941 32.1112C43.0027 32.5263 43.0027 33.2023 42.5941 33.6173L41.576 34.6518L41.949 36.0652C42.0988 36.6312 41.7679 37.2176 41.2078 37.3695L39.8165 37.7484L39.4435 39.1618C39.2937 39.7281 38.7205 40.0678 38.1596 39.9149L36.7684 39.5359L35.7502 40.5703C35.6528 40.6691 35.5373 40.7473 35.4101 40.8007C35.2829 40.854 35.1466 40.8814 35.009 40.8812ZM35.009 37.011C32.7578 37.011 30.9266 35.1505 30.9266 32.8635C30.9266 30.5764 32.7578 28.716 35.009 28.716C37.2602 28.716 39.0914 30.5764 39.0914 32.8635C39.0914 35.1505 37.2602 37.011 35.009 37.011ZM35.009 29.8644C33.3812 29.8644 32.057 31.2097 32.057 32.8635C32.057 34.5172 33.3812 35.8625 35.009 35.8625C36.6368 35.8625 37.961 34.5172 37.961 32.8635C37.961 31.2097 36.6368 29.8644 35.009 29.8644ZM9.43971 12.3868H4.56517C4.25268 12.3868 3.99995 12.1301 3.99995 11.8126V6.89895C3.99995 2.83495 8.75015 1.79652 9.36188 6.58846C9.41856 7.03266 9.4402 7.48342 9.4402 7.93123L9.43971 12.3868ZM27.4692 8.98992H18.6494C18.337 8.98992 18.0842 8.73316 18.0842 8.4157C18.0842 8.09824 18.337 7.84148 18.6494 7.84148H27.47C27.7824 7.84148 28.0352 8.09824 28.0352 8.4157C28.0352 8.73316 27.7816 8.98992 27.4692 8.98992ZM31.3344 13.9044H14.7842C14.4717 13.9044 14.219 13.6477 14.219 13.3302C14.219 13.0127 14.4717 12.756 14.7842 12.756H31.3352C31.6477 12.756 31.9004 13.0127 31.9004 13.3302C31.9004 13.6477 31.6469 13.9044 31.3344 13.9044ZM31.3344 18.8181H14.7842C14.4717 18.8181 14.219 18.5613 14.219 18.2439C14.219 17.9264 14.4717 17.6696 14.7842 17.6696H31.3352C31.6477 17.6696 31.9004 17.9264 31.9004 18.2439C31.9004 18.5613 31.6469 18.8181 31.3344 18.8181ZM31.3344 23.7326H14.7842C14.4717 23.7326 14.219 23.4758 14.219 23.1584C14.219 22.8409 14.4717 22.5841 14.7842 22.5841H31.3352C31.6477 22.5841 31.9004 22.8409 31.9004 23.1584C31.9004 23.4758 31.6469 23.7326 31.3344 23.7326ZM25.9181 28.6463H14.7834C14.4709 28.6463 14.2182 28.3895 14.2182 28.072C14.2182 27.7546 14.4709 27.4978 14.7834 27.4978H25.9181C26.2305 27.4978 26.4833 27.7546 26.4833 28.072C26.4833 28.3895 26.2305 28.6463 25.9181 28.6463ZM24.4679 33.5599H14.7842C14.4717 33.5599 14.219 33.3032 14.219 32.9857C14.219 32.6682 14.4717 32.4115 14.7842 32.4115H24.4679C24.7804 32.4115 25.0331 32.6682 25.0331 32.9857C25.0331 33.3032 24.7804 33.5599 24.4679 33.5599Z" fill="#E8C8A9"/>
</g>
<defs>
<clipPath id="clip0_141_1560">
<rect width="48" height="48" fill="white"/>
</clipPath>
</defs>
</svg>
