<svg width="48" height="48" viewBox="0 0 48 48" fill="none" xmlns="http://www.w3.org/2000/svg">
<path d="M22.797 11C16.5561 11.573 11.5729 16.5561 11 22.797L22.797 11ZM25.203 37C31.4439 36.427 36.4271 31.4439 37 25.203L25.203 37Z" fill="#E8C8A9"/>
<path d="M8.0726 25.3434C8.03493 24.8966 8.01592 24.4484 8.01562 24C8.01562 15.1862 15.1862 8.01562 24 8.01562C24.4525 8.01562 24.9003 8.03556 25.3434 8.0726L30.4533 2.96267C28.4125 2.33739 26.2457 2 24 2C11.8497 2 2 11.8497 2 24C2 26.2457 2.33739 28.4125 2.96267 30.4533L8.0726 25.3434ZM39.9274 22.6566C39.9644 23.0997 39.9844 23.5475 39.9844 24C39.9844 32.8138 32.8138 39.9844 24 39.9844C23.5475 39.9844 23.0997 39.9644 22.6566 39.9274L17.5467 45.0373C19.5875 45.6626 21.7543 46 24 46C36.1503 46 46 36.1503 46 24C46 21.7543 45.6626 19.5875 45.0373 17.5467L39.9274 22.6566ZM19.2147 26.6585L18.8107 27.0625C19.1792 27.4297 19.6682 27.9173 19.8722 28.1212C20.1152 28.3643 20.5848 28.8311 20.9388 29.1831C21.0772 29.0433 21.2149 28.9028 21.3519 28.7616C21.8639 28.2316 21.5687 27.4702 21.0492 26.9508C20.7999 26.7013 19.9303 25.9429 19.2147 26.6585ZM31.0459 17.5888L31.5587 17.076L30.6272 16.655L31.0459 17.5888ZM12.5909 33.2823L12.2407 33.6326C12.3763 33.7675 12.5067 33.8973 12.5752 33.9657C12.655 34.0456 12.782 34.1716 12.9112 34.2997C13.0438 34.1659 13.1754 34.0334 13.2587 33.9501C13.4639 33.7449 13.4843 33.4186 13.3034 33.2375C13.1224 33.0565 12.7961 33.0771 12.5909 33.2823ZM17.0164 31.6183L17.5292 31.1056L16.5977 30.6845L17.0164 31.6183ZM33.192 12.6812L32.8418 13.0315C32.9774 13.1664 33.1077 13.2962 33.1762 13.3646C33.2561 13.4445 33.3831 13.5705 33.5123 13.6986C33.6449 13.5648 33.7765 13.4323 33.8599 13.3489C34.0651 13.1437 34.0855 12.8175 33.9045 12.6364C33.7235 12.4555 33.3973 12.476 33.192 12.6812Z" fill="#E8C8A9"/>
<path d="M45.2449 10.0472L37.9528 2.75513C36.946 1.74829 35.3136 1.74829 34.3068 2.75513L2.75513 34.3068C1.74829 35.3136 1.74829 36.946 2.75513 37.9528L10.0472 45.2449C11.054 46.2517 12.6864 46.2517 13.6932 45.2449L45.2449 13.6932C46.2517 12.6864 46.2517 11.0539 45.2449 10.0472ZM12.7135 39.2364C12.6536 39.2962 12.5826 39.3437 12.5044 39.3761C12.4262 39.4085 12.3424 39.4252 12.2577 39.4252C12.1731 39.4252 12.0893 39.4085 12.0111 39.3761C11.9329 39.3437 11.8618 39.2962 11.8019 39.2364L9.21935 36.6538L8.83959 37.0335C8.77976 37.0934 8.70872 37.1409 8.63052 37.1733C8.55233 37.2057 8.46851 37.2224 8.38387 37.2224C8.29922 37.2224 8.21541 37.2057 8.13721 37.1733C8.05902 37.1409 7.98797 37.0934 7.92814 37.0335C7.80728 36.9127 7.73939 36.7487 7.73939 36.5778C7.73939 36.4069 7.80728 36.243 7.92814 36.1221L9.60607 34.4442C9.72695 34.3233 9.89089 34.2554 10.0618 34.2554C10.2328 34.2554 10.3967 34.3233 10.5176 34.4442C10.6385 34.565 10.7064 34.729 10.7064 34.8999C10.7064 35.0709 10.6385 35.2348 10.5176 35.3557L10.131 35.7423L12.7136 38.3249C12.8344 38.4458 12.9023 38.6097 12.9023 38.7807C12.9023 38.9516 12.8344 39.1155 12.7135 39.2364ZM16.6511 35.0715C16.6413 35.2279 16.5747 35.3754 16.4638 35.4861C16.3991 35.5509 16.3213 35.6012 16.2356 35.6336C16.1499 35.666 16.0583 35.6797 15.9669 35.6737L14.1621 35.5587L14.8209 36.2175C14.9418 36.3384 15.0097 36.5023 15.0097 36.6732C15.0097 36.8442 14.9418 37.0081 14.8209 37.129C14.7001 37.2499 14.5361 37.3178 14.3652 37.3178C14.1942 37.3178 14.0303 37.2499 13.9094 37.129L10.8711 34.0907C10.8112 34.0308 10.7637 33.9598 10.7313 33.8816C10.6989 33.8034 10.6823 33.7196 10.6823 33.6349C10.6823 33.5503 10.6989 33.4665 10.7313 33.3883C10.7637 33.3101 10.8112 33.239 10.8711 33.1792L10.8716 33.1787L10.8721 33.1782L11.6795 32.3708C12.3908 31.6595 13.5283 31.6393 14.215 32.3261C14.7382 32.8492 14.8499 33.6337 14.5594 34.2924L16.049 34.3873C16.2195 34.3982 16.3788 34.4764 16.4917 34.6047C16.6046 34.733 16.6619 34.9009 16.6511 35.0715ZM20.2591 31.6321C20.1886 31.7879 20.0592 31.9093 19.8993 31.9696C19.7394 32.03 19.5621 32.0243 19.4063 31.9539L18.7847 31.673L17.5807 32.8769L17.8609 33.5018C18.0065 33.8266 17.8611 34.2083 17.5365 34.3536C17.3805 34.4235 17.2031 34.4286 17.0434 34.3678C16.8837 34.307 16.7546 34.1852 16.6847 34.0293L14.83 29.8928C14.7687 29.7559 14.7505 29.6037 14.7778 29.4562C14.8051 29.3088 14.8766 29.1731 14.9828 29.0672L14.9834 29.0668C15.0894 28.9602 15.2254 28.8886 15.3733 28.8613C15.5211 28.8341 15.6738 28.8525 15.8108 28.9142L19.937 30.7794C20.0142 30.8143 20.0837 30.8639 20.1417 30.9256C20.1996 30.9873 20.2448 31.0599 20.2747 31.1391C20.3046 31.2182 20.3186 31.3025 20.316 31.3871C20.3133 31.4717 20.2939 31.555 20.2591 31.6321ZM22.2794 29.657C22.038 29.9069 21.4262 30.5235 21.4003 30.5496L21.3986 30.5513C21.2783 30.6716 21.1153 30.7394 20.9452 30.7401C20.7895 30.7404 20.639 30.6844 20.5214 30.5823C20.4893 30.5603 20.4593 30.5354 20.4316 30.508L17.4458 27.5222L17.4457 27.5221L17.4435 27.5199C17.3834 27.4601 17.3358 27.389 17.3032 27.3108C17.2707 27.2325 17.2539 27.1486 17.2538 27.0639C17.2538 26.9791 17.2704 26.8952 17.3028 26.8169C17.3352 26.7386 17.3828 26.6674 17.4427 26.6075L18.3032 25.747C19.3097 24.7405 20.7796 24.8579 21.9609 26.0392C23.0845 27.1629 23.2185 28.6844 22.2794 29.657ZM26.0252 25.9247L24.745 27.2049C24.6241 27.3257 24.4602 27.3936 24.2893 27.3936C24.1183 27.3936 23.9544 27.3257 23.8335 27.2049L20.7952 24.1665C20.6744 24.0457 20.6065 23.8817 20.6065 23.7108C20.6065 23.5399 20.6744 23.376 20.7952 23.2551L22.0754 21.9749C22.3271 21.7232 22.7352 21.7232 22.9869 21.9749C23.2386 22.2266 23.2386 22.6346 22.9869 22.8863L22.1624 23.7108L22.7701 24.3185L23.5002 23.5884C23.56 23.5285 23.6311 23.481 23.7093 23.4486C23.7875 23.4162 23.8713 23.3995 23.956 23.3995C24.0406 23.3995 24.1244 23.4162 24.2026 23.4486C24.2808 23.481 24.3519 23.5285 24.4117 23.5884C24.5326 23.7092 24.6005 23.8732 24.6005 24.0441C24.6005 24.215 24.5326 24.3789 24.4117 24.4998L23.6816 25.2299L24.2893 25.8376L25.1137 25.0132C25.2351 24.8945 25.3983 24.8284 25.5681 24.8293C25.7378 24.8302 25.9003 24.898 26.0204 25.018C26.1404 25.1381 26.2082 25.3006 26.2091 25.4704C26.21 25.6401 26.144 25.8034 26.0252 25.9247ZM30.5467 21.3394C30.3476 21.6342 29.946 21.7105 29.6515 21.5105L28.0335 20.4117L29.0158 22.1774C29.0931 22.3175 29.123 22.4788 29.1009 22.6373C29.0788 22.7958 29.006 22.9428 28.8934 23.0565L28.8905 23.0593C28.7779 23.1722 28.6318 23.2457 28.474 23.2689C28.3162 23.2921 28.1551 23.2636 28.0147 23.1879L26.2333 22.2182L27.3402 23.8125C27.5432 24.1049 27.4701 24.5066 27.1783 24.7095C27.1088 24.7578 27.0304 24.7919 26.9477 24.8099C26.865 24.8278 26.7796 24.8294 26.6963 24.8143C26.613 24.7993 26.5335 24.768 26.4623 24.7222C26.3911 24.6765 26.3296 24.6171 26.2813 24.5476L23.8566 21.0548C23.6636 20.7702 23.6863 20.3984 23.9079 20.1449C24.0184 20.0184 24.1686 19.9331 24.3339 19.9032C24.4993 19.8732 24.6698 19.9002 24.8178 19.9798L26.9699 21.1514L25.785 19.0217C25.7813 19.0149 25.7775 19.0081 25.7741 19.0012C25.6995 18.8553 25.6753 18.6888 25.7055 18.5278C25.7356 18.3668 25.8183 18.2203 25.9406 18.1112C26.0628 18.0022 26.2176 17.9366 26.3809 17.9247C26.5443 17.9128 26.707 17.9553 26.8437 18.0455L30.3756 20.4442C30.4457 20.4917 30.5056 20.5526 30.5521 20.6233C30.5986 20.694 30.6308 20.7732 30.6467 20.8563C30.6625 20.9395 30.6619 21.0249 30.6447 21.1078C30.6276 21.1907 30.5943 21.2694 30.5467 21.3394ZM34.2885 17.6026C34.2181 17.7584 34.0887 17.8798 33.9288 17.9402C33.7689 18.0005 33.5915 17.9949 33.4358 17.9245L32.8143 17.6435L31.6104 18.8474L31.8905 19.4723C31.9587 19.628 31.9626 19.8043 31.9014 19.9628C31.8402 20.1213 31.7189 20.2493 31.5638 20.3188C31.4088 20.3884 31.2325 20.3939 31.0735 20.3341C30.9144 20.2744 30.7853 20.1542 30.7144 19.9998L28.8597 15.8634C28.7984 15.7264 28.7802 15.5741 28.8076 15.4266C28.8349 15.2791 28.9065 15.1434 29.0127 15.0375L29.013 15.0373C29.119 14.9308 29.2551 14.8591 29.4029 14.8318C29.5508 14.8046 29.7034 14.823 29.8405 14.8848L33.9667 16.75C34.0438 16.7848 34.1133 16.8345 34.1712 16.8962C34.2291 16.958 34.2743 17.0305 34.3042 17.1096C34.3341 17.1888 34.3481 17.2731 34.3454 17.3577C34.3427 17.4423 34.3234 17.5255 34.2885 17.6026ZM37.2522 14.4704C37.2424 14.6268 37.1758 14.7742 37.0649 14.885C37.0002 14.9498 36.9224 15.0002 36.8367 15.0325C36.751 15.0649 36.6594 15.0786 36.5679 15.0726L34.7632 14.9576L35.422 15.6164C35.4818 15.6762 35.5293 15.7473 35.5617 15.8255C35.5941 15.9037 35.6107 15.9875 35.6107 16.0721C35.6107 16.1568 35.5941 16.2406 35.5617 16.3188C35.5293 16.397 35.4818 16.4681 35.422 16.5279C35.3621 16.5878 35.291 16.6352 35.2128 16.6676C35.1346 16.7 35.0508 16.7167 34.9662 16.7167C34.8815 16.7167 34.7977 16.7 34.7195 16.6676C34.6413 16.6352 34.5703 16.5878 34.5104 16.5279L31.4721 13.4896C31.3512 13.3687 31.2833 13.2048 31.2833 13.0339C31.2833 12.8629 31.3512 12.699 31.4721 12.5781L31.4726 12.5776L31.4731 12.5771L32.2805 11.7696C32.9918 11.0583 34.1292 11.0382 34.8159 11.7249C35.3391 12.2481 35.4508 13.0326 35.1604 13.6913L36.6499 13.7862C36.8205 13.7971 36.9798 13.8753 37.0927 14.0036C37.2057 14.1319 37.263 14.2998 37.2522 14.4704ZM40.0719 11.878C39.954 11.9962 39.7947 12.0639 39.6277 12.0666L37.7217 12.1007L38.3296 12.7087C38.4505 12.8295 38.5184 12.9935 38.5184 13.1644C38.5184 13.3354 38.4505 13.4993 38.3296 13.6202C38.2088 13.7411 38.0448 13.809 37.8739 13.809C37.7029 13.809 37.539 13.7411 37.4181 13.6202L34.3798 10.5819C34.2589 10.461 34.191 10.2971 34.191 10.1262C34.191 9.95524 34.2589 9.79131 34.3798 9.67044C34.4396 9.61056 34.5107 9.56307 34.5889 9.53066C34.6671 9.49826 34.7509 9.48158 34.8355 9.48158C34.9202 9.48158 35.004 9.49826 35.0822 9.53066C35.1604 9.56307 35.2314 9.61056 35.2912 9.67044L35.794 10.1732L35.8643 8.50298C35.8666 8.41754 35.8858 8.33342 35.921 8.25551C35.9561 8.17759 36.0063 8.10744 36.0688 8.04913C36.1313 7.99082 36.2048 7.94552 36.2849 7.91586C36.3651 7.8862 36.4503 7.87278 36.5357 7.87638C36.6211 7.87997 36.7049 7.90051 36.7823 7.9368C36.8596 7.97309 36.929 8.02441 36.9864 8.08777C37.0437 8.15112 37.0879 8.22526 37.1164 8.30585C37.1448 8.38644 37.1569 8.47188 37.152 8.5572L37.0567 10.8235L39.6044 10.7779C39.6891 10.7764 39.7732 10.7915 39.8519 10.8225C39.9307 10.8535 40.0026 10.8997 40.0635 10.9585C40.1244 11.0172 40.1732 11.0874 40.2069 11.165C40.2407 11.2426 40.2589 11.3261 40.2604 11.4108C40.2621 11.4973 40.2463 11.5834 40.2139 11.6637C40.1815 11.744 40.1332 11.8169 40.0719 11.878Z" fill="#E8C8A9"/>
</svg>
